<?xml version="1.0" standalone="no"?>
<!DOCTYPE svg PUBLIC "-//W3C//DTD SVG 1.1//EN" "http://www.w3.org/Graphics/SVG/1.1/DTD/svg11.dtd" >
<svg xmlns="http://www.w3.org/2000/svg">
<metadata></metadata>
<defs>
<font id="baar_sophiaregular" horiz-adv-x="1032" >
<font-face units-per-em="2048" ascent="1638" descent="-410" />
<missing-glyph horiz-adv-x="501" />
<glyph horiz-adv-x="2048" />
<glyph horiz-adv-x="2048" />
<glyph unicode="&#xd;" horiz-adv-x="501" />
<glyph unicode=" "  horiz-adv-x="501" />
<glyph unicode="&#x09;" horiz-adv-x="501" />
<glyph unicode="&#xa0;" horiz-adv-x="501" />
<glyph unicode="!" horiz-adv-x="569" d="M223 180l6 6q117 0 191 4l6 -8q0 -61 2 -184l-4 -6q-102 -2 -195 -6l-4 6q2 84 -2 188zM246 1473l2 2q104 2 209 8q-60 -649 -60 -1030v-4q-74 -4 -139 -11l-2 4q2 188 2 359q0 381 -12 672z" />
<glyph unicode="&#x22;" horiz-adv-x="686" d="M94 1411q61 20 111 21q20 0 51 -5q2 -10 4 -30v-2l-82 -557h-22zM350 1399v8q57 25 92 25q6 0 72 -2q4 -20 2 -25l-80 -555q-12 -4 -22 -4l-62 526q-2 18 -2 27z" />
<glyph unicode="#" horiz-adv-x="1224" d="M33 444l2 113l266 4l39 262l-260 -6v113l274 4l62 432l123 2l-64 -432l223 6l66 430l117 2l-60 -430l254 4l-2 -110l-266 -7l-39 -260l256 4l-2 -110l-270 -6l-66 -461l-121 -2l68 461l-225 -4l-68 -461l-123 -2l72 461zM422 565l227 4l37 260l-227 -4z" />
<glyph unicode="$" horiz-adv-x="880" d="M12 63q10 45 31 134l6 2q70 -55 182 -93l121 521q-160 109 -194 143q-98 98 -101 225q-4 188 142 277q123 74 319 63l29 154l6 4l86 2q-18 -59 -45 -170q100 -29 178 -70q-16 -74 -27 -125l-6 -2q-70 53 -168 93l-112 -482q174 -109 209 -141q104 -96 106 -238 q2 -172 -117.5 -276t-294.5 -104q-27 0 -88 4l-36 -168q-49 2 -82 0q16 55 45 176q-121 33 -189 71zM207 1018q0 -76 63 -141q23 -23 117 -97l113 455q-100 -2 -187 -51q-109 -61 -106 -166zM303 88q322 14 318 252q-2 86 -70 154q-35 35 -133 96z" />
<glyph unicode="%" horiz-adv-x="1789" d="M119 858q-2 205 55 338q78 184 258 184q260 0 266 -409q4 -205 -53 -336q-78 -178 -260 -178q-260 0 -266 401zM250 848q4 -293 145 -293q180 0 174 463q-4 264 -141 264q-106 0 -152 -166q-29 -109 -26 -268zM528 -14q100 250 258 673q162 434 254 709l11 10l118 2 q-248 -643 -510 -1386l-8 -8h-123zM999 381q-4 211 56 344q78 182 264 182q256 0 262 -401q2 -205 -55 -340q-80 -184 -258 -184q-263 0 -269 399zM1130 373q6 -291 146 -291q180 0 174 448q-4 279 -143 279q-104 0 -150 -168q-29 -111 -27 -268z" />
<glyph unicode="&#x26;" horiz-adv-x="1107" d="M29 289q-2 139 88 246q47 55 194 161q-137 199 -139 328q-2 137 86 225t225 88q121 0 199 -71.5t78 -190.5q0 -117 -88 -223q-53 -63 -174 -154l241 -338q86 152 131 281h4q45 -68 87 -121q-49 -115 -152 -260q53 -74 211 -254l-6 -6h-215l-11 4q-37 61 -81 135 q-193 -164 -361 -164q-139 0 -227 87.5t-90 226.5zM188 309q0 -90 54.5 -150.5t144.5 -60.5q104 0 256 131l-264 377q-90 -72 -129 -123q-61 -82 -62 -174zM319 1051q2 -100 117 -263q88 68 125 115q61 78 60 166q-2 70 -42 119t-110 49q-74 0 -115 -59q-35 -51 -35 -127z " />
<glyph unicode="'" horiz-adv-x="385" d="M-10 961q66 274 104 509l6 7q109 8 189 18q-121 -336 -170 -520l-6 -6q-70 -4 -123 -8z" />
<glyph unicode="(" horiz-adv-x="716" d="M127 483q-4 283 121 543q104 219 319 457q4 2 121 8q-393 -453 -385 -1020q8 -508 346 -891l-108 -8l-11 6q-395 403 -403 905z" />
<glyph unicode=")" horiz-adv-x="737" d="M-14 -428q391 451 383 1022q-8 504 -344 887l108 8l10 -4q403 -412 404 -905v-35q0 -422 -324 -828q-53 -66 -117 -135l-12 -8z" />
<glyph unicode="*" horiz-adv-x="804" d="M-8 952q92 45 293 150l-291 135q29 37 65 115l13 2q86 -72 227 -187q-16 207 -33 328q55 2 148 10q-18 -137 -41 -338q129 109 227 199h14q20 -35 58 -102l-6 -17q-123 -70 -263 -151l265 -123l-62 -121l-16 -2q-111 100 -221 197q16 -174 34 -332l-4 -6q-68 0 -145 -4 q20 137 51 335q-147 -121 -239 -200h-13q-33 63 -61 112z" />
<glyph unicode="+" horiz-adv-x="1224" d="M80 500l2 129l412 -6l8 485l131 4l-8 -483h415v-131h-415l-9 -508l-131 -4l7 508z" />
<glyph unicode="," horiz-adv-x="415" d="M61 -301q76 309 105 512l6 6q104 4 188 12q-82 -233 -167 -514l-7 -10q-59 0 -125 -6z" />
<glyph unicode="-" horiz-adv-x="821" d="M119 453q2 6 6 182l4 4q41 2 119 0q80 -2 119 -2q200 0 329 10l-6 -186h-137q-264 0 -434 -8z" />
<glyph unicode="." horiz-adv-x="483" d="M125 -4q4 119 0 233l6 7q113 2 193 6l6 -6q-4 -128 -2 -228l-4 -6l-197 -8z" />
<glyph unicode="/" horiz-adv-x="839" d="M-43 -283q51 117 348 856q156 389 346 893l8 9l148 4q-451 -1090 -692 -1751l-11 -13q-96 2 -147 2z" />
<glyph unicode="0" horiz-adv-x="1122" d="M39 637q-23 770 502 770q240 0 354 -211q88 -162 96 -428q25 -791 -493 -791q-439 1 -459 660zM229 639q6 -197 54 -332q74 -205 227 -205q311 0 293 652q-17 532 -273 532q-180 0 -254 -233q-53 -168 -47 -414z" />
<glyph unicode="1" horiz-adv-x="729" d="M90 1217q6 72 8 124l4 5q186 29 381 63l2 -2q-12 -201 -12 -782q0 -428 12 -621q-86 -2 -200 -12q12 784 6 1268q-115 -25 -197 -46z" />
<glyph unicode="2" horiz-adv-x="1058" d="M59 76l2 24q244 297 484 598q70 88 96 138q43 80 41 170q-4 252 -223 251q-176 0 -332 -178l-8 6q2 59 2 177q12 18 53 47q145 100 328 100q174 0 268 -103.5t98 -279.5q2 -145 -102 -299q-82 -121 -223 -297q-227 -285 -232 -289q293 4 611 27l2 -4q-2 -68 -4 -152 l-9 -10q-25 0 -278 6q-190 4 -281 4q-90 0 -262 -10l-6 2z" />
<glyph unicode="3" horiz-adv-x="1083" d="M57 66q4 66 11 155l10 6q137 -121 303 -121q152 0 252 88.5t98 239.5q-2 135 -85 211t-220 76q-59 0 -143 -31l-37 53q133 158 205 246q113 139 188 254q-129 -2 -537 -22q4 59 4 139l5 6q307 -6 501 -6q156 0 238 4l31 -68q-57 -84 -179 -231q-129 -158 -182 -227 q176 -29 283 -123q123 -104 125 -275q2 -90 -39 -180q-127 -281 -508 -280q-186 0 -320 81z" />
<glyph unicode="4" horiz-adv-x="1083" d="M16 360v72q0 51 28 99.5t56 93.5l86 139q135 221 351 590l8 8q100 2 276 8q-16 -453 -16 -862q96 2 182 8q-4 -41 -12 -137h-60q-14 0 -114 -2q-4 -162 -2 -373l-2 -4q-94 -2 -179 -8l-2 4q6 150 11 379zM195 494l438 8l12 729z" />
<glyph unicode="5" horiz-adv-x="1083" d="M72 47l10 156l8 4q125 -94 277 -94q160 0 265 95t103 255q-2 152 -90 236.5t-239 84.5q-72 0 -123 -20q-33 -12 -113 -62l-47 43q18 193 41 598l6 7q193 4 674 18l-6 -139l-4 -4q-90 2 -138 2q-61 0 -370 -10l-25 -310q98 14 166 15q203 0 330 -116t129 -319 q4 -233 -168 -374q-160 -131 -398 -131q-162 0 -284 61z" />
<glyph unicode="6" horiz-adv-x="1079" d="M57 575q-6 354 123 564q156 254 492 254q129 0 205 -33q-4 -45 -25 -137h-10q-78 47 -152 47q-219 0 -328 -164q-84 -127 -124 -401q184 170 360 169q174 0 276.5 -115.5t104.5 -291.5q4 -209 -119 -344q-127 -141 -332 -141q-242 0 -364 184q-102 154 -107 409zM256 514 q0 -160 55 -264q72 -135 217 -135q131 0 205 100q68 92 66 227q-2 127 -62 205q-65 88 -188 88q-184 0 -293 -207v-14z" />
<glyph unicode="7" horiz-adv-x="915" d="M49 1214q0 74 4 142l6 4h9q63 0 190 -2t191 -2q139 0 350 10l8 -4q35 -80 35 -86l-258 -627q-150 -367 -224 -641l-8 -6q-94 -2 -217 -10q281 627 496 1225q-53 0 -289 2q-176 2 -287 -11z" />
<glyph unicode="8" horiz-adv-x="1083" d="M39 367q-2 133 70 225q51 66 172 141q-176 135 -179 307q-4 182 148 279q121 78 293 78q170 0 276 -82q117 -90 119 -256q2 -156 -205 -309q117 -68 172 -136q66 -86 68 -204q2 -211 -160 -330q-137 -100 -332 -100q-190 0 -311 96q-129 104 -131 291zM229 383 q2 -123 71 -200t189 -77q129 0 211 83t82 212q0 115 -70.5 193t-185.5 78q-135 0 -217 -77t-80 -212zM272 1022q0 -104 62.5 -165.5t167.5 -61.5q111 0 185.5 64.5t72.5 174.5q-2 102 -65 168t-163 66q-113 0 -186.5 -66.5t-73.5 -179.5z" />
<glyph unicode="9" horiz-adv-x="1079" d="M43 911q-4 211 125 349.5t338 138.5q451 0 459 -606q4 -340 -121 -553q-154 -258 -473 -258q-130 0 -267 53l-2 4q4 70 7 147l8 7q113 -88 241 -89q367 0 428 578q-166 -164 -364 -164q-174 0 -275.5 108.5t-103.5 284.5zM223 942q2 -125 60 -205q66 -90 184 -90 q209 0 299 207q4 55 2 72q-2 135 -66 231q-75 111 -202 111q-129 0 -207 -101q-72 -92 -70 -225z" />
<glyph unicode=":" horiz-adv-x="493" d="M168 2v207l4 8q106 0 190 4l7 -8q0 -35 2 -207l-4 -4q-102 -2 -195 -6zM168 809v209l4 6h27q59 0 166 4l4 -8q0 -90 2 -207l-4 -4l-195 -6z" />
<glyph unicode=";" horiz-adv-x="495" d="M104 -299q76 315 99 489l4 5q104 4 190 12q-84 -223 -168 -492l-6 -8q-59 0 -119 -6zM219 809v209l6 6h45q53 0 146 4l6 -8q-2 -55 -2 -109q0 -49 2 -96l-4 -6l-197 -4z" />
<glyph unicode="&#x3c;" horiz-adv-x="1392" d="M63 596l3 141l1196 639v-129l-1069 -577l1050 -537v-129z" />
<glyph unicode="=" horiz-adv-x="1226" d="M156 313l2 129l850 -4l-2 -129zM162 659l2 132l848 -5l-2 -131z" />
<glyph unicode="&#x3e;" horiz-adv-x="1402" d="M68 -16l2 129l1069 579l-1053 537l2 129l1178 -594l-2 -139z" />
<glyph unicode="?" horiz-adv-x="856" d="M94 1225l12 157l5 7q125 86 278 86q158 0 253 -92.5t97 -252.5q2 -158 -121 -370q-137 -240 -153 -361l-4 -6q-86 -2 -154 -6q14 102 43 174q25 59 88.5 168t85.5 166q39 98 39 188q-2 111 -55 181q-59 74 -168 73q-115 0 -246 -112zM274 -6q4 141 2 196l7 9 q113 4 192 12l6 -6q-4 -103 -4 -195l-4 -8q-106 -6 -194 -12z" />
<glyph unicode="@" horiz-adv-x="1599" d="M98 485q-6 336 210 577t550 241q240 0 390.5 -143.5t154.5 -383.5q4 -215 -94 -401q-113 -213 -287 -213q-90 0 -162 127q-96 -119 -225 -119q-115 0 -182 90q-59 82 -62 201q-2 180 82 325q100 170 270 170q115 0 205 -120l19 92l10 8l133 -4q-29 -57 -70 -287 q-39 -221 -39 -301q2 -86 48 -86q70 0 143 125q109 186 104 389q-4 205 -122.5 322.5t-321.5 117.5q-285 0 -475 -229q-180 -217 -176 -506q4 -258 166.5 -412.5t420.5 -154.5q293 0 572 264l12 -2l49 -66q-293 -287 -620 -286q-303 0 -498 180q-201 184 -205 485zM535 469 q2 -201 133 -201q156 0 219 281q14 63 14 78q0 80 -31 143q-36 80 -108 80q-104 0 -172 -133q-57 -115 -55 -248z" />
<glyph unicode="A" horiz-adv-x="1136" d="M-16 -6l225 674q123 375 211 682l8 8q145 6 256 14l6 -6q59 -258 174 -678q76 -281 191 -676l-8 -8l-191 -10l-6 6q-33 145 -102 434q-217 -2 -467 -8q-74 -254 -115 -416l-6 -8q-90 0 -176 -8zM317 545q182 2 400 8l-178 672z" />
<glyph unicode="B" horiz-adv-x="1155" d="M100 -6q2 78 15 651l8 432q0 104 -8 285q227 10 401 10q420 0 420 -307q0 -213 -260 -334q319 -76 319 -325q0 -172 -114 -281q-106 -102 -281 -121q-111 -12 -250 -12h-125q-84 2 -125 2zM289 373q0 -84 2 -252q211 4 233 6q283 27 283 285q0 239 -312 239h-3 q-117 0 -117 -2h2q-13 29 -23 111h37q127 0 234 59q135 76 135 211q0 223 -264 223h-56q-82 0 -141 -4z" />
<glyph unicode="C" horiz-adv-x="1144" d="M47 643v32q0 316 150 511q174 223 503 223q139 0 287 -55q4 -74 10 -217l-4 -4l-100 18l-33 104q-102 39 -164 39q-231 0 -354 -192q-104 -162 -104 -417v-32q4 -231 102 -381q117 -174 336 -174q162 1 340 148q-8 -109 -12 -174l-5 -6q-160 -92 -356 -93 q-289 0 -446 195q-143 178 -150 475z" />
<glyph unicode="D" horiz-adv-x="1314" d="M100 -8q20 398 20 841q0 164 -3 334q0 55 -13 189l11 6h49q61 0 185 7t186 7q258 0 389 -92q217 -154 223 -524v-13q0 -175 -53 -323q-80 -219 -254 -322q-145 -86 -355 -98zM289 123q252 2 362 45q176 68 254 276q51 138 51 318v14q-6 481 -450 481q-49 0 -199 -8 q-18 -453 -18 -1013v-113z" />
<glyph unicode="E" horiz-adv-x="1003" d="M100 -6q18 324 21 545l2 237q1 127 1 234q0 213 -5 344l4 2q238 0 715 6q-8 -86 -13 -137l-2 -4q-51 0 -241 8q-143 6 -242 6h-27q-10 -205 -14 -455h481q-6 -53 -10 -137l-2 -2q-66 0 -213 6q-98 4 -215 4h-43q-6 -262 -6 -522h76h456q-2 0 -8 -131l-4 -4 q-57 -2 -123 -2z" />
<glyph unicode="F" horiz-adv-x="884" d="M100 -6q12 193 21 631l2 125q2 123 2 245q0 183 -4 365q39 1 95 1t128 -1l223 -2q136 0 240 4q-6 -57 -12 -139l-4 -4q-74 0 -218.5 9t-218.5 9h-37q-6 -158 -14 -481q35 0 78 -1q130 0 340 5q-4 -45 -14 -133l-2 -4q-55 0 -190.5 4t-188.5 4h-23q-4 -172 -4 -323v-99 q2 -88 6 -203q-41 -2 -205 -12z" />
<glyph unicode="G" horiz-adv-x="1304" d="M23 655v15q0 326 174 526q186 213 518 213q197 0 360 -78q-12 -86 -20 -164q-168 115 -338 115q-258 0 -387 -186q-109 -156 -109 -414v-18q4 -238 113 -392q125 -176 350 -176q98 0 227 43q7 299 7 355v10l-3 33l-122 -2l28 112l10 8q113 -4 136 -4q8 0 139 8 q-16 -236 -16 -527v-66l-3 -3q-205 -90 -411 -90q-303 0 -479 191q-170 184 -174 491z" />
<glyph unicode="H" horiz-adv-x="1306" d="M90 -8q18 436 19 680v133l-3 549q47 2 195 12q-10 -336 -12 -557h59q61 -2 113 -2h172q154 0 274 6q1 106 1 194q0 262 -5 351q91 4 193 10q-21 -457 -21 -835q0 -112 2 -218q2 -178 10 -325q-74 -2 -200 -13q8 231 18 701h-311q-176 0 -309 -4q-4 -180 -4 -324 q0 -215 8 -348q-94 -2 -199 -10z" />
<glyph unicode="I" horiz-adv-x="503" d="M35 1237l26 115l13 10l258 6q-20 -444 -21 -852q0 -262 8 -510q-82 -4 -194 -12q18 417 18 894q0 172 -2 351z" />
<glyph unicode="J" horiz-adv-x="616" d="M-23 0q0 45 3 135q51 -14 88 -14q121 0 170 108q26 57 26 930v66v10l-145 -4l26 117l13 8l118 -2q42 0 183 10q-8 -190 -21 -961q-4 -207 -67 -301q-79 -114 -272 -114h-3q-59 0 -119 12z" />
<glyph unicode="K" horiz-adv-x="1116" d="M100 -6q23 522 23 951q0 118 -2 229q-2 102 -10 188q63 0 202 10q-10 -201 -16 -629q92 109 326 408q45 66 147 207q74 2 191 8q-154 -199 -463 -614q227 -346 565 -740l-2 -6q-147 -4 -227 -14l-13 8q-176 240 -526 727q-1 -166 -1 -301q0 -271 5 -420l-4 -2 q-100 -2 -195 -10z" />
<glyph unicode="L" horiz-adv-x="882" d="M104 2q24 653 24 1033q0 79 -1 145q-2 104 -12 186q74 4 213 10q-33 -510 -33 -1233q215 6 506 21q-2 -54 -8 -158l-5 -4h-684z" />
<glyph unicode="M" horiz-adv-x="1572" d="M35 -10q12 111 53 829q10 147 33 533l12 8q111 2 238 10l6 -6q47 -156 147 -430q115 -313 168 -469q66 174 221 528q135 309 152 357l6 6q66 2 248 12l8 -438q2 -117 19 -459q12 -291 12 -463v-2q-70 -2 -191 -10l-2 1182q-217 -487 -442 -979q-12 0 -94 -6l-4 6 q-23 94 -201 553l-174 444q-18 -389 -47 -1194l-2 -4q-88 -2 -166 -8z" />
<glyph unicode="N" horiz-adv-x="1318" d="M100 -6q18 418 19 954q0 322 -4 408l10 6q49 0 221 12l14 -10l596 -1174v102q0 380 -12 1064l2 2q70 2 166 10q-19 -698 -19 -1151q0 -113 1 -211q-76 0 -220 -12l-10 10q-94 193 -305 590q-195 371 -305 592q0 -383 16 -1180l-2 -2q-82 -2 -168 -10z" />
<glyph unicode="O" horiz-adv-x="1376" d="M39 651v27q0 304 131 500q160 233 469 233q276 0 422 -205q127 -178 135 -467v-35q0 -300 -129 -493q-156 -236 -467 -236q-279 0 -426 205q-129 178 -135 471zM238 666q4 -225 75 -371q96 -193 297 -193q219 0 322 224q72 160 72 389v24q-13 547 -369 547 q-397 0 -397 -582v-38z" />
<glyph unicode="P" horiz-adv-x="1103" d="M131 -6q6 145 12 545l2 125q2 126 2 247q0 242 -8 461q51 0 209 10q125 8 209 9q430 0 434 -385v-8q0 -116 -55 -216q-131 -236 -533 -239l-45 116q150 6 232 31q221 66 221 299v8q-4 272 -291 273q-72 0 -186 -13q-12 -434 -12 -790q0 -250 6 -461l-2 -4 q-100 -2 -195 -8z" />
<glyph unicode="Q" horiz-adv-x="1388" d="M45 659v36q0 301 129 491q158 229 469 229q272 0 422 -198q133 -176 139 -459v-34q0 -226 -76 -384q-81 -170 -280 -313q272 -105 438 -144q-33 -61 -72 -139l-10 -6q-66 29 -530 223q-14 6 -53 23q-23 2 -80 6q-248 25 -379 229q-111 174 -117 440zM242 666 q6 -219 80 -365q98 -190 294 -190q219 0 320 219q72 156 72 377v34q-6 219 -80 363q-98 186 -295 186q-219 0 -320 -217q-72 -152 -72 -368q0 -19 1 -39z" />
<glyph unicode="R" horiz-adv-x="1114" d="M117 -6q119 10 196 12q-8 176 -8 465q0 324 10 789q119 4 168 4q295 0 297 -250q0 -55 -22.5 -125t-57.5 -105q-66 -63 -323 -100l45 -96q133 -197 389 -600l10 -6q68 6 217 12q-47 55 -164 209q-45 63 -266 403q145 33 250 162q103 127 103 271v5q-6 344 -424 345 q-84 0 -205 -7q-162 -8 -207 -8q9 -254 9 -488q0 -78 -1 -155l-2 -129q-2 -109 -14 -608z" />
<glyph unicode="S" horiz-adv-x="997" d="M39 51q8 68 16 164l8 4q152 -113 304 -113q125 0 206 62q86 68 86 187v5q-2 147 -157 230q-29 16 -289 143q-156 104 -158 295v5q0 184 138 286q123 90 317 90q129 0 297 -55l2 -4q-8 -80 -14 -154l-7 -2q-156 86 -282 86q-115 0 -189 -53q-84 -60 -84 -165 q0 -137 162 -218q37 -18 297 -144q160 -106 162 -290v-12q0 -201 -135 -316q-129 -109 -342 -109q-184 0 -338 78z" />
<glyph unicode="T" horiz-adv-x="913" d="M-25 1225q0 43 7 129l2 4q97 -1 228 -1q261 0 654 5q-8 -86 -8 -133l-4 -4h-63q-127 0 -279 -2q-14 -449 -14 -840q0 -197 4 -377q-74 0 -205 -10q24 495 24 969q0 138 -2 274q-188 -6 -344 -14z" />
<glyph unicode="U" horiz-adv-x="1304" d="M117 432q6 264 8 795q-2 61 -6 125l8 8h25q76 0 172 8q-4 -135 -17 -747q-2 -119 -2 -144q6 -377 293 -377q293 0 320 369q2 33 4 166q3 207 3 370q0 217 -5 357q41 2 161 12q-8 -209 -12 -844q-2 -272 -108 -407q-120 -150 -386 -150q-174 0 -292 80q-131 90 -158 256 q-6 43 -8 123z" />
<glyph unicode="V" horiz-adv-x="1042" d="M-49 1356l12 6h23q51 0 168 8l4 -6q80 -375 301 -1196q121 385 346 1182l6 8q88 2 170 8q-102 -344 -416 -1356q-47 0 -250 -12l-6 8l-321 1213q-10 39 -37 137z" />
<glyph unicode="W" horiz-adv-x="1609" d="M-31 1356l4 4q111 4 203 10l4 -8q18 -133 74 -483l123 -711q96 371 268 1096l6 6q51 2 195 10l6 -6q8 -139 209 -1102l164 743q29 131 82 428l6 9q84 2 190 10q-49 -174 -153 -647q-46 -195 -152 -705l-8 -8q-135 -4 -264 -12l-6 8q-25 199 -84 522q-61 344 -91 522 q-31 -119 -98 -389l-88 -368q-20 -76 -70 -273l-6 -10q-63 -2 -239 -10l-6 8l-140 748q-39 215 -129 608z" />
<glyph unicode="X" horiz-adv-x="995" d="M-49 -4q139 236 411 717q-174 350 -339 647q135 10 202 22l8 -6q8 -18 240 -508q254 485 264 494q64 -2 187 -2q-127 -205 -377 -631l360 -717l-200 -18l-11 6q-84 186 -260 561q-156 -283 -282 -547l-13 -10q-94 -2 -190 -8z" />
<glyph unicode="Y" horiz-adv-x="991" d="M-35 1360q68 0 203 6l8 -4q35 -92 281 -637q209 414 307 635l8 8q18 -1 43 -1q50 0 125 3q-139 -258 -408 -786q-4 -174 -4 -318q0 -143 4 -260l-4 -2q-23 0 -192 -14q12 249 12 464v60q0 25 -4 49q-203 451 -379 797z" />
<glyph unicode="Z" horiz-adv-x="958" d="M-45 78q123 201 428 725l242 434q-72 2 -150 2q-53 0 -174 -10q-90 -6 -148 -6h-26l-70 2q10 59 17 129l6 6q94 -5 235 -5q70 0 152 1l387 4l20 -60q-8 -12 -133 -213q-100 -161 -540 -958q24 -1 53 -1q102 0 262 11q202 15 303 15h12q-2 -10 -20 -146l-6 -4 q-111 5 -261 5q-75 0 -161 -1q-248 -4 -360 -4h-60z" />
<glyph unicode="[" horiz-adv-x="567" d="M141 -428q12 180 19 467q20 1098 12 1423h37q90 1 326 11q-4 -45 -5 -107h-176q-39 -596 -37 -1688q111 4 191 11q-4 -47 -6 -111q-20 0 -361 -6z" />
<glyph unicode="\" horiz-adv-x="839" d="M-14 1481l147 2l10 -8q121 -373 471 -1295q47 -125 172 -446l-6 -4l-143 -2l-8 8q-309 901 -643 1745z" />
<glyph unicode="]" horiz-adv-x="579" d="M-2 -428q4 45 6 106h59q43 0 130 3q25 360 26 841q0 6 -4 844q-109 -2 -188 -8q4 47 6 108q20 1 360 9q-14 -164 -18 -449q-20 -1139 -15 -1444h-34q-129 0 -328 -10z" />
<glyph unicode="^" horiz-adv-x="1343" d="M203 647l329 725l132 2l294 -710l-145 -5l-221 545l-248 -555z" />
<glyph unicode="_" horiz-adv-x="917" d="M-16 -150l913 -2v-102l-913 2v102z" />
<glyph unicode="`" horiz-adv-x="862" d="M270 1456l199 -4l6 -4q12 -63 84 -307l-8 -6q-58 1 -111 -5q-102 205 -170 326z" />
<glyph unicode="a" d="M37 432v29q0 248 129 399q145 166 409 166q131 0 183 -27q78 -39 82 -153q0 -23 -2 -180l-4 -240l-3 -438q-45 2 -174 86q-137 -98 -247 -99q-176 0 -279 146q-88 125 -94 311zM211 442q4 -133 55 -221q62 -108 183 -108h2q109 0 211 100q6 397 6 541v57q0 37 -28 63.5 t-65 28.5q-12 1 -24 1q-175 0 -264 -136q-76 -116 -76 -299v-27z" />
<glyph unicode="b" horiz-adv-x="1021" d="M78 88q23 556 23 930q0 90 -1 170q-2 123 -12 264l188 45l3 -2l-19 -571q168 96 279 96q180 0 280 -141q92 -125 94 -312v-9q0 -197 -90 -339q-102 -156 -291 -207q-92 -24 -223 -24q-51 0 -67 4q-25 6 -85.5 42t-78.5 54zM250 117q66 -10 108 -11q188 0 291 136 q90 120 90 309v8q-2 133 -63 227q-72 111 -197 111q-94 0 -217 -86z" />
<glyph unicode="c" horiz-adv-x="829" d="M27 465v20q0 217 127 375q139 176 366 176q125 0 213 -37q-6 -78 -10 -137l-6 -2q-78 53 -174 53q-162 0 -260 -145q-80 -121 -80 -282v-15q4 -152 69 -250q76 -119 220 -119q121 0 239 107q-8 -96 -10 -154q-88 -80 -266 -80q-203 0 -318 148q-104 133 -110 342z" />
<glyph unicode="d" horiz-adv-x="1071" d="M31 444v21q1 255 145 405q150 156 420 156q47 0 102 -4q1 66 1 128t-1 120q-2 74 -8 174q74 16 189 47q-23 -486 -23 -1010q0 -260 14 -467l-4 -6q-41 2 -98 29l-94 43q-143 -98 -258 -98q-182 0 -289 145q-92 127 -96 317zM207 453q2 -131 59 -224q69 -110 191 -110h2 q119 0 227 100q6 309 6 686q-69 4 -96 4q-199 0 -301 -131q-88 -116 -88 -308v-17z" />
<glyph unicode="e" horiz-adv-x="970" d="M43 455v27q0 222 94 376q119 195 346 195q143 0 248 -90q94 -84 137 -228q-16 -33 -63 -88q-195 -57 -586 -170q23 -377 309 -377q152 0 295 129q-6 -72 -12 -163q-35 -41 -145 -68q-92 -23 -162 -23q-215 0 -338 134q-117 127 -123 346zM209 610l483 129 q-104 205 -219 205q-190 0 -264 -334z" />
<glyph unicode="f" horiz-adv-x="634" d="M31 868q4 43 8 107l10 10h105q8 401 161 524q98 80 193 80q38 0 67 -2q-4 -20 -8 -112h-8q-139 0 -203 -117q-29 -53 -34 -176q-1 -22 -1 -68.5t1 -118.5q78 2 231 11q-4 -41 -8 -121l-2 -4q-35 0 -221 -2q-2 -173 -2 -337.5t2 -320.5q2 -96 6 -211q-14 0 -191 -16 q18 338 21 876l-123 -6z" />
<glyph unicode="g" d="M37 432v29q0 248 129 399q145 166 409 166q139 0 193 -31q72 -41 72 -149q-2 -109 -2 -377q0 -158 -7 -455q-4 -174 -104 -293q-37 -45 -110.5 -80.5t-131.5 -37.5h-23q-69 0 -151 10q-113 16 -166 43l7 174q53 -41 135 -69.5t149 -28.5q45 0 78 12q158 60 158 317v13 q-135 -98 -262 -99q-176 0 -279 146q-88 125 -94 311zM211 442q4 -133 55 -221q62 -108 183 -108h2q115 0 217 100q2 133 2 282.5t-2 315.5q0 37 -28 63.5t-65 28.5q-12 1 -24 1q-175 0 -264 -136q-76 -116 -76 -299v-27z" />
<glyph unicode="h" horiz-adv-x="1105" d="M106 2q10 264 19 791l4 409q-2 131 -8 242q76 16 194 47q-16 -225 -22 -606q213 137 344 137q266 0 270 -309q1 -66 1 -135q0 -273 -19 -578q-8 -131 -158 -154l8 146q7 119 7 243q0 208 -19 431q-18 225 -170 225q-109 0 -262 -123q-4 -221 -4 -410q0 -188 4 -348 q-63 -2 -189 -8z" />
<glyph unicode="i" horiz-adv-x="491" d="M115 -4q19 331 19 621q0 63 -1 124q-2 145 -12 252q109 23 186 43l4 -2q-20 -350 -20 -674q0 -180 6 -354q-100 -4 -182 -10zM164 1214q16 84 39 256q59 2 178 11l-86 -234l-12 -12q-39 -8 -119 -21z" />
<glyph unicode="j" horiz-adv-x="491" d="M-23 -330q98 31 136 105q29 53 34 170q11 200 11 496q0 130 -2 278q-2 152 -11 280q87 14 193 39q-25 -338 -25 -819v-41q2 -35 2 -55v-94q0 -147 -30 -232q-41 -113 -150 -174q-18 -10 -135 -35q-6 25 -23 82zM166 1217q16 84 39 251q59 2 178 11l-86 -230l-12 -12 q-39 -8 -119 -20z" />
<glyph unicode="k" horiz-adv-x="933" d="M104 -8q21 537 21 963q0 126 -2 243q-2 86 -8 244l2 4q49 10 184 43q-10 -293 -20 -875q41 45 337 404l183 10q-195 -240 -338 -424q246 -395 428 -551l-2 -6q-61 -16 -184 -57l-15 6q-186 256 -411 594q0 -375 4 -580z" />
<glyph unicode="l" horiz-adv-x="456" d="M102 1448q87 18 187 43q-6 -100 -10 -711q-1 -118 -1 -226q0 -323 9 -548q-59 -2 -181 -10q13 519 13 844q0 126 -2 223q-4 199 -15 385z" />
<glyph unicode="m" horiz-adv-x="1644" d="M78 -8q14 256 14 564q0 102 -2 210q-2 127 -10 225l12 6q39 0 86 -22q37 -18 84 -39q149 108 325 108h3q133 0 223 -141q176 133 354 133q262 0 263 -301l-3 -729q-68 -2 -180 -10q15 193 15 523v114q-2 264 -183 264q-127 0 -239 -94q4 -75 3 -204q0 -86 -1 -196 q-1 -86 -1 -159q0 -146 5 -238q-41 -2 -187 -12q17 343 17 570v65q-4 280 -163 280h-1q-111 0 -250 -116q-4 -268 -4 -465t4 -324q-74 -2 -184 -12z" />
<glyph unicode="n" horiz-adv-x="1091" d="M98 989q12 8 19 8q39 0 82 -18l84 -39q139 98 346 98q254 0 258 -303q1 -27 1 -65q0 -77 -3 -203q-1 -52 -1 -119.5t1 -150.5q2 -115 6 -185l-2 -2q-98 -4 -178 -10l-2 2q0 31 8 324q3 89 3 203q0 57 -1 120q0 102 -35 170q-45 88 -137 88q-129 0 -262 -114 q-4 -207 -4 -385q0 -221 6 -398l-2 -2q-100 -4 -185 -12q12 336 12 540q0 44 -1 82q-4 188 -13 371z" />
<glyph unicode="o" horiz-adv-x="1019" d="M35 459q-1 18 -1 35q0 229 99 368q121 172 365 172q205 0 313 -141q94 -127 100 -340q1 -19 1 -38q0 -228 -91 -365q-117 -176 -358 -177q-211 0 -322 142q-100 127 -106 344zM213 442q4 -143 55 -237q68 -123 197 -123q271 0 271 399q0 21 -1 43q-12 400 -254 400 q-269 0 -269 -435q0 -23 1 -47z" />
<glyph unicode="p" horiz-adv-x="1042" d="M86 -416q21 475 21 879q0 105 -1 205q-2 166 -14 346l4 4q111 -12 174 -64q143 98 299 99q168 0 269 -144q90 -127 92 -303v-11q0 -279 -191 -433q-170 -138 -435 -138q-18 0 -36 1q-1 -76 -1 -147q0 -142 3 -263l-4 -4zM268 133q41 -2 66 -2q201 0 313 131 q103 122 103 319v11q-2 131 -56 223q-63 111 -186 111q-104 0 -229 -95q-10 -264 -11 -698z" />
<glyph unicode="q" horiz-adv-x="1044" d="M25 440v20q0 136 51 253q82 188 258 258q125 49 350 49h188l2 -2q-10 -240 -16 -668l66 41q-2 -27 -4 -98q-18 -27 -62 -80q3 -134 3 -359q0 -112 -1 -247l-4 -2l-178 -29q10 250 12 512q-174 -106 -287 -106q-176 0 -280 145q-94 129 -98 313zM205 440q2 -135 61 -221 q70 -98 199 -98q109 0 223 94l4 684q-70 0 -196 -12q-291 -58 -291 -427v-20z" />
<glyph unicode="r" horiz-adv-x="655" d="M111 -6q9 352 9 615q0 88 -1 165q-2 100 -8 215q59 14 182 45l-8 -239q41 109 143 200q113 102 217 103q13 0 29 -4q-12 -55 -37 -170q-47 -8 -107 -21q-51 -14 -100 -51q-94 -72 -127 -242q-20 -104 -20 -293q0 -160 6 -313q-53 -2 -178 -10z" />
<glyph unicode="s" horiz-adv-x="847" d="M23 -39q4 39 24 148q174 -39 203 -39q100 0 178 43q100 56 100 155t-118 148q-72 29 -217 86q-117 70 -121 217v10q0 161 129 244q111 71 283 71h5q98 0 179 -30l2 -4l-13 -142q-96 55 -196 56q-80 0 -139 -35q-72 -42 -72 -113q0 -101 123 -147l223 -82 q121 -70 125 -230v-8q0 -128 -117 -243q-139 -137 -424 -138q-72 0 -155 29z" />
<glyph unicode="t" horiz-adv-x="643" d="M25 891v8l18 96l125 27l4 238l174 43q-8 -68 -12 -289q72 0 213 4q-6 -53 -6 -123q-49 0 -203 -2l-6 -643q-2 -166 217 -187l-4 -67q-53 -14 -109 -14q-268 0 -268 229l-2 680h-141z" />
<glyph unicode="u" horiz-adv-x="1064" d="M96 1014l2 2q82 6 195 20l2 -4q0 -70 -10 -196q-12 -137 -15 -197q-3 -117 -3 -202q0 -42 1 -77q2 -102 37 -170q47 -88 137 -88q109 0 254 127q0 31 6 187q4 102 5 186q0 197 -9 412l2 2q14 0 187 18q-12 -365 -13 -641q1 -227 9 -395l-6 -8q-41 4 -89 37l-92 61 q-168 -115 -338 -115q-254 0 -258 301q-1 26 -1 64q0 77 3 203q1 72 1 137.5t-1 126.5q-2 125 -6 209z" />
<glyph unicode="v" horiz-adv-x="835" d="M-14 1014q92 8 190 20l6 -4l213 -887q86 289 242 871l4 4q76 0 162 4q-154 -457 -311 -1006l-7 -6q-25 -2 -225 -22l-4 6q-158 651 -270 1020z" />
<glyph unicode="w" horiz-adv-x="1400" d="M-20 1016q117 4 180 10l4 -4q23 -168 88 -438l102 -439q68 283 187 848l6 6h20q61 0 209 13l4 -6q66 -295 189 -887q55 104 116 436q52 296 52 434v23q63 2 188 14q-16 -141 -80 -485q-57 -311 -158 -533l-6 -8q6 0 -254 -10l-6 6q-57 297 -166 889l-100 -471 q-25 -111 -90 -404l-4 -4q-129 0 -236 -4l-4 6q-87 408 -241 1008z" />
<glyph unicode="x" horiz-adv-x="839" d="M-6 -6q195 295 332 524q-86 168 -263 496q113 10 197 22l4 -4q98 -240 160 -362q61 113 178 344l8 8l168 4q-106 -164 -293 -485l295 -529l-198 -18l-7 4q-66 152 -186 397q-68 -127 -199 -383l-8 -6q-39 0 -188 -12z" />
<glyph unicode="y" horiz-adv-x="845" d="M-2 1016q123 12 192 22l7 -4q66 -260 223 -809q82 262 235 797l9 6q75 2 161 6q-127 -334 -331 -940q-43 -129 -154 -469l-10 -10q-106 -4 -180 -10q72 129 120 227q4 8 62 150q-25 86 -152 479q-80 248 -182 555z" />
<glyph unicode="z" horiz-adv-x="833" d="M43 90q10 27 74 121q74 109 86 129q49 84 311 578q-143 -4 -430 -21l-2 4l14 115l4 8q158 -4 436 -4h199l6 -19q-158 -301 -479 -890q17 -1 38 -1q79 0 209 12t209 12q21 0 38 -1l-21 -133l-8 -6q-84 6 -190 6h-322q-51 0 -158 6l-8 4z" />
<glyph unicode="{" horiz-adv-x="643" d="M106 502l3 47q88 31 118 149q16 70 17 203v94q0 20 -2 56v39q0 227 65 307q45 53 123 71q25 6 139 15v-39q-106 -33 -149 -113q-35 -66 -39 -252v-227q-8 -150 -49 -211q-31 -45 -123 -111q96 -70 125 -116q35 -57 37 -172q-2 -104 -4 -316q2 -129 28 -186 q41 -86 148 -117v-39q-176 6 -232 45q-78 55 -82 244q2 109 4 328q-2 123 -18 182q-27 92 -109 119z" />
<glyph unicode="|" horiz-adv-x="417" d="M137 1501l123 -2l-2 -1950l-119 5z" />
<glyph unicode="}" horiz-adv-x="653" d="M35 -381q104 33 147 115q35 68 41 250q0 90 2 272q2 104 45 168q27 41 125 108q-96 70 -125 117q-35 57 -37 172q4 104 5 316q-2 127 -31 186q-41 86 -148 117v39q176 -6 232 -45q82 -57 84 -244q-2 -109 -4 -328q2 -121 18 -180q27 -94 109 -121l-2 -47 q-88 -31 -119 -149q-16 -70 -17 -203v-94q0 -20 2 -56v-39q0 -227 -65 -307q-45 -53 -123 -72q-25 -6 -139 -14v39z" />
<glyph unicode="~" horiz-adv-x="1337" d="M195 539q98 170 227 170q68 0 201 -72t184 -72q76 0 176 140l47 -117q-114 -162 -233 -162q-68 0 -192 71.5t-185 71.5q-51 0 -101 -49q-18 -23 -73 -98z" />
<glyph unicode="&#xa1;" horiz-adv-x="501" d="M51 -4q51 557 60 1059l141 12q-2 -178 -2 -340q0 -406 14 -719l-2 -2q-104 -2 -211 -10zM82 1298q2 106 2 185l4 6l197 12l2 -2q-4 -92 -2 -190l-6 -6q-106 -4 -191 -13z" />
<glyph unicode="&#xa2;" horiz-adv-x="876" d="M72 479q-4 221 102 375q121 172 334 180q2 0 59 -2q8 51 29 152l2 4q49 -2 90 0q-16 -66 -43 -162q88 -28 129 -51l-20 -135l-9 -4q-41 41 -122 82l-199 -816q37 -2 68 -2q147 0 270 103q-6 -57 -10 -148l-4 -4q-131 -72 -263 -71q-25 0 -84 6q-20 -94 -34 -168l-5 -4 h-90q23 72 56 188q-127 61 -195 201q-59 123 -61 276zM231 504q4 -197 121 -389l193 821q-320 -80 -314 -432z" />
<glyph unicode="&#xa3;" horiz-adv-x="880" d="M-12 608q2 33 4 103l2 2l123 -2l-2 198q10 434 415 434q135 0 258 -51l3 -2q-10 -74 -13 -127l-6 -4q-121 66 -235 66q-182 0 -232 -166q-25 -82 -20 -344q184 4 403 16q-6 -45 -10 -102l-2 -6q-129 0 -391 -7q-6 -248 -80 -505q190 2 571 20l2 -2q-4 -66 -6 -123l-2 -4 q-250 0 -750 -16q84 264 99 628z" />
<glyph unicode="&#xa4;" horiz-adv-x="1224" d="M41 178l135 152q-90 164 -92 295q-4 166 104 340l-133 145l90 98l134 -145q147 109 299 108q125 0 266 -98l137 156l88 -96l-135 -150q90 -168 92 -285q2 -109 -25 -188q-20 -66 -81 -166l135 -147l-90 -101l-138 152q-150 -106 -290 -107q-129 0 -273 99l-137 -156z M205 639q2 -158 92 -268q96 -117 252 -117q162 0 264 137q94 125 92 291q-2 156 -92 262q-98 115 -250 115q-162 0 -264 -133q-96 -121 -94 -287z" />
<glyph unicode="&#xa5;" horiz-adv-x="991" d="M-20 1303q66 4 196 18l8 -6q109 -256 277 -623q197 385 295 619l10 8q86 2 162 10q-166 -315 -301 -579l164 6q-4 -37 -9 -99l-2 -2h-45q-23 2 -155 -2q-23 -45 -45 -94q0 -23 -7 -119q86 2 258 11q-4 -41 -8 -101l-2 -2h-43q-35 0 -203 -2q0 -248 2 -346l-2 -2 q-78 0 -190 -8q2 31 10 352q-37 0 -250 -6q2 23 9 94l4 4l241 4l-2 101q-16 37 -51 110l-199 -6q4 31 11 94l4 4h141q-162 342 -278 562z" />
<glyph unicode="&#xa7;" horiz-adv-x="917" d="M27 598q-2 162 196 311q-55 59 -78 97q-35 59 -36 120q-2 152 108 236q100 76 256 76q125 0 260 -54l2 -2q-8 -76 -10 -129l-4 -2q-121 74 -242 74q-84 0 -145 -41q-70 -45 -70 -125q2 -104 146 -182l264 -141q143 -96 145 -238q2 -102 -57 -184q-41 -57 -135 -129 q135 -133 137 -242q2 -160 -121 -246q-106 -76 -272 -76q-154 0 -293 76q4 72 4 135l6 5q135 -106 277 -107q92 0 157 41q74 49 74 137q-2 115 -147 195q-90 47 -273 143q-147 100 -149 252zM166 643q0 -80 70 -139q25 -20 131 -80l170 -94q141 102 139 221q0 98 -148 186 q-41 25 -223 121q-141 -100 -139 -215z" />
<glyph unicode="&#xa8;" horiz-adv-x="540" d="M-39 1217q8 61 23 217q61 4 194 12l-74 -193l-14 -14q-41 -8 -129 -22zM322 1217q10 61 22 217l197 12l-74 -193l-16 -14q-39 -8 -129 -22z" />
<glyph unicode="&#xa9;" horiz-adv-x="1701" d="M123 666q-6 299 196.5 503.5t501.5 204.5q291 0 485.5 -196.5t200.5 -487.5q6 -299 -195.5 -501.5t-500.5 -202.5q-289 0 -486.5 195.5t-201.5 484.5zM182 666q4 -264 187.5 -447.5t447.5 -183.5q270 0 452.5 192.5t178.5 462.5q-4 268 -182.5 451.5t-444.5 183.5 q-272 0 -457.5 -192.5t-181.5 -466.5zM365 674q-4 201 130 337t334 136q211 0 367 -170l-113 -115q-125 133 -258 133q-129 0 -211 -94t-79 -225q2 -129 86 -216t213 -87q133 0 253 137l121 -102q-160 -186 -385 -187q-197 0 -326.5 128t-131.5 325z" />
<glyph unicode="&#xaa;" horiz-adv-x="616" d="M-4 897q-2 133 133 199q61 31 233 65q-12 156 -106 156q-80 0 -184 -55l-4 2q4 41 4 75q31 23 106 39q66 14 115 15q180 0 186 -258q2 -80 -2 -207q-4 -176 -4 -207l-2 -2q-59 -2 -119 -8l-24 34q-84 -49 -152 -49q-84 0 -131 57.5t-49 143.5zM113 911q2 -135 104 -135 q66 0 135 60l6 256q-113 -23 -157 -45q-90 -46 -88 -136z" />
<glyph unicode="&#xab;" horiz-adv-x="800" d="M39 512v4q111 211 182 387l8 6h127l-186 -381q57 -131 184 -383q-80 0 -139 -4l-6 4q-51 127 -170 367zM375 528v4q57 125 170 375l8 8h135q-76 -135 -182 -370l184 -389l-133 -2l-4 4q-63 150 -178 370z" />
<glyph unicode="&#xac;" horiz-adv-x="1220" d="M-14 504l2 117l1188 26l-11 -645l-123 -2l9 528z" />
<glyph unicode="&#xad;" horiz-adv-x="821" d="M119 453q2 6 6 182l4 4q41 2 119 0q80 -2 119 -2q200 0 329 10l-6 -186h-137q-264 0 -434 -8z" />
<glyph unicode="&#xae;" horiz-adv-x="1701" d="M123 664q-6 299 194.5 504.5t499.5 205.5q291 0 487.5 -195.5t202.5 -488.5q6 -295 -197.5 -499.5t-498.5 -204.5q-289 0 -486.5 194.5t-201.5 483.5zM182 666q4 -262 186.5 -446.5t444.5 -184.5q272 0 454.5 190.5t178.5 462.5q-4 266 -183.5 451.5t-443.5 185.5 q-272 0 -456.5 -192.5t-180.5 -466.5zM514 240v878l340 6q297 0 301 -221q2 -123 -160 -211q90 -76 107 -180q27 -166 67 -260l-192 -2q-25 41 -42 154.5t-38 156.5q-37 74 -119 74q16 0 -90 -2v-389zM690 764q164 4 184 8q109 23 107 117q-2 108 -129 108q-18 0 -162 -2 v-231z" />
<glyph unicode="&#xaf;" horiz-adv-x="538" d="M-57 1223q10 84 12 129l4 8h64q305 0 473 18q-8 -76 -13 -135l-4 -4q-174 -4 -536 -16z" />
<glyph unicode="&#xb0;" horiz-adv-x="653" d="M-23 1145q-2 127 81 230.5t208 103.5q121 0 198 -86t79 -209q2 -129 -78 -230q-84 -106 -211 -106q-121 0 -197.5 87t-79.5 210zM104 1161q0 -76 39 -129q45 -59 117 -59q68 0 115 65q41 59 41 129q0 74 -41 130.5t-111 56.5q-68 0 -114 -61.5t-46 -131.5z" />
<glyph unicode="&#xb1;" horiz-adv-x="1226" d="M25 4l2 115l1038 4l-2 -117zM37 756l2 114l459 -2l8 486l121 2l-6 -486l454 9l-2 -115l-457 -8l-4 -488l-120 -2l6 486z" />
<glyph unicode="&#xb4;" horiz-adv-x="1079" d="M438 1128q61 170 103 316l6 6l39 -2q49 -2 166 8q-90 -127 -187 -319l-10 -7q-49 0 -117 -2z" />
<glyph unicode="&#xb6;" horiz-adv-x="1222" d="M133 979q-2 178 111 285q106 100 286 104l406 8v-65l-62 -2l-22 -1635l-82 -2l23 1635l-287 -4l-25 -1637l-80 -2l15 967q-129 29 -205 122t-78 226z" />
<glyph unicode="&#xb7;" horiz-adv-x="419" d="M94 418q4 96 4 223l4 6q63 4 195 17l4 -5q-4 -115 -4 -213l-4 -8q-72 -4 -199 -20z" />
<glyph unicode="&#xb8;" horiz-adv-x="528" d="M174 -373q49 100 117 273l8 8l119 2q-25 -96 -68 -268l-6 -9q-76 0 -170 -6z" />
<glyph unicode="&#xba;" horiz-adv-x="690" d="M2 1018q-2 164 70 262q80 111 237 111q254 0 260 -318q2 -164 -63 -264q-76 -115 -234 -115q-264 0 -270 324zM119 1020q4 -256 162 -256q174 0 170 301q-4 254 -160 254q-176 0 -172 -299z" />
<glyph unicode="&#xbb;" horiz-adv-x="800" d="M51 899q80 2 133 6l9 -8q78 -176 178 -369v-4q-57 -111 -172 -377l-9 -6q-47 2 -135 0q74 133 181 371q-11 27 -185 387zM387 147q61 125 184 381q-47 111 -182 383q82 0 139 4l9 -6l77 -188q43 -102 91 -178q-104 -203 -183 -389l-8 -7h-127z" />
<glyph unicode="&#xbc;" horiz-adv-x="1349" d="M43 1522q4 39 6 69l2 2q53 6 137 31q111 33 140 41l2 -2q-8 -111 -8 -430q0 -236 8 -342q-61 0 -146 -6q12 580 11 671q-55 -14 -148 -36zM195 -68q51 117 348 856q156 389 346 893l8 9l147 4q-451 -1090 -692 -1751l-10 -13q-96 2 -147 2zM707 154v41q0 31 49 104l49 76 q80 119 203 319l24 33h191q0 6 0 -477q55 0 106 4q-6 -31 -12 -94h-35q-8 0 -65 -2q-2 -33 0 -82q2 -68 2 -96v-3q-53 0 -138 -6l-2 2q0 49 2 183zM838 240l252 4l2 377z" />
<glyph unicode="&#xbd;" horiz-adv-x="1349" d="M43 1522q4 39 6 69l2 2q53 6 137 31q111 33 140 41l2 -2q-8 -111 -8 -430q0 -236 8 -342q-61 0 -146 -6q12 580 11 671q-55 -14 -148 -36zM195 -68q51 117 348 856q156 389 346 893l8 9l147 4q-451 -1090 -692 -1751l-10 -13q-96 2 -147 2zM766 8v31q74 76 256 260 q47 47 65 72q63 90 64 106q-2 66 -35 89.5t-112 23.5q-59 0 -95 -17q-25 -12 -80 -59l-6 4q2 8 -2 50t-4 63q8 10 37 24q68 37 172 37q106 0 174 -47q78 -53 80 -156q2 -78 -72 -159q-27 -29 -86 -86q-39 -43 -174 -181q96 -6 338 -4l2 -2q-4 -36 -10 -102l-6 -6h-156h-139 q-63 0 -182 -4h-4z" />
<glyph unicode="&#xbe;" horiz-adv-x="1349" d="M20 948q4 35 9 107l6 2q88 -72 153 -72q88 0 147.5 46t59.5 122q-2 78 -52 120t-130 42q-35 0 -86 -19l6 35q80 88 121 139q37 39 106 125q-78 -2 -319 -14q0 6 4 47q4 33 4 51l2 4q184 -4 299 -4q92 0 142 2l18 -39q-33 -47 -104 -129q-78 -90 -109 -129 q240 -37 242 -225q0 -51 -23 -100q-76 -160 -303 -160q-111 0 -190 47zM195 -68q51 117 348 856q156 389 346 893l8 9l147 4q-451 -1090 -692 -1751l-10 -13q-96 2 -147 2zM707 154v41q0 31 49 104l49 76q80 119 203 319l24 33h191q0 6 0 -477q55 0 106 4q-6 -31 -12 -94 h-35q-8 0 -65 -2q-2 -33 0 -82q2 -68 2 -96v-3q-53 0 -138 -6l-2 2q0 49 2 183zM838 240l252 4l2 377z" />
<glyph unicode="&#xbf;" horiz-adv-x="768" d="M27 340q-2 156 120 369q137 238 154 360l4 6q70 0 154 6q-14 -109 -43 -176q-23 -55 -86.5 -164.5t-87.5 -171.5q-39 -100 -39 -190q2 -111 61.5 -179.5t167.5 -68.5q109 0 240 113l-13 -158l-6 -6q-119 -86 -278 -86q-158 0 -252 93t-96 253zM287 1294q0 31 2 187l4 4 l194 14l5 -4q-3 -43 -3 -188l-6 -9q-104 -4 -190 -10z" />
<glyph unicode="&#xc0;" horiz-adv-x="1136" d="M-16 -6l225 674q123 375 211 682l8 8q145 6 256 14l6 -6q59 -258 174 -678q76 -281 191 -676l-8 -8l-191 -10l-6 6q-33 145 -102 434q-217 -2 -467 -8q-74 -254 -115 -416l-6 -8q-90 0 -176 -8zM317 545q182 2 400 8l-178 672zM344 1739l199 -4l6 -4q12 -63 84 -307 l-8 -6q-58 1 -111 -5q-102 205 -170 326z" />
<glyph unicode="&#xc1;" horiz-adv-x="1136" d="M-16 -6l225 674q123 375 211 682l8 8q145 6 256 14l6 -6q59 -258 174 -678q76 -281 191 -676l-8 -8l-191 -10l-6 6q-33 145 -102 434q-217 -2 -467 -8q-74 -254 -115 -416l-6 -8q-90 0 -176 -8zM317 545q182 2 400 8l-178 672zM489 1427q61 170 103 316l6 6l39 -2 q49 -2 166 8q-90 -127 -187 -319l-10 -7q-49 0 -117 -2z" />
<glyph unicode="&#xc2;" horiz-adv-x="1136" d="M-16 -6l225 674q123 375 211 682l8 8q145 6 256 14l6 -6q59 -258 174 -678q76 -281 191 -676l-8 -8l-191 -10l-6 6q-33 145 -102 434q-217 -2 -467 -8q-74 -254 -115 -416l-6 -8q-90 0 -176 -8zM301 1400q59 102 155 310l11 8q68 4 215 10l6 -6q43 -98 125 -291l-4 -12 h-64q-31 0 -82 -4l-4 6q-31 74 -92 223q-16 -39 -63.5 -114.5t-63.5 -116.5l-8 -8q-82 -1 -131 -5zM317 545q182 2 400 8l-178 672z" />
<glyph unicode="&#xc3;" horiz-adv-x="1136" d="M-16 -6l225 674q123 375 211 682l8 8q145 6 256 14l6 -6q59 -258 174 -678q76 -281 191 -676l-8 -8l-191 -10l-6 6q-33 145 -102 434q-217 -2 -467 -8q-74 -254 -115 -416l-6 -8q-90 0 -176 -8zM287 1423q6 82 8 143q10 33 58 62.5t85 29.5q45 0 136 -45t134 -45 q76 0 142 103l4 -2q-4 -50 -8 -142q-82 -92 -146 -92q-47 0 -132 45t-132 45q-76 0 -147 -102h-2zM317 545q182 2 400 8l-178 672z" />
<glyph unicode="&#xc4;" horiz-adv-x="1136" d="M-16 -6l225 674q123 375 211 682l8 8q145 6 256 14l6 -6q59 -258 174 -678q76 -281 191 -676l-8 -8l-191 -10l-6 6q-33 145 -102 434q-217 -2 -467 -8q-74 -254 -115 -416l-6 -8q-90 0 -176 -8zM315 1469q8 61 23 217q61 4 194 12l-74 -193l-14 -14q-41 -8 -129 -22z M317 545q182 2 400 8l-178 672zM676 1469q10 61 22 217l197 12l-74 -193l-16 -14q-39 -8 -129 -22z" />
<glyph unicode="&#xc5;" horiz-adv-x="1136" d="M-16 -6l225 674q123 375 211 682l8 8q145 6 256 14l6 -6q59 -258 174 -678q76 -281 191 -676l-8 -8l-191 -10l-6 6q-33 145 -102 434q-217 -2 -467 -8q-74 -254 -115 -416l-6 -8q-90 0 -176 -8zM317 545q182 2 400 8l-178 672zM355 1577q0 82 63 131q57 47 141 47 q76 0 128.5 -46t52.5 -122q0 -82 -61.5 -127t-145.5 -45q-76 0 -127 43t-51 119zM459 1581q2 -102 90 -102q90 0 88 100q-2 111 -86 111q-43 0 -68.5 -32t-23.5 -77z" />
<glyph unicode="&#xc6;" horiz-adv-x="1570" d="M-66 -12q68 186 261 682q166 428 247 686l11 10l510 -2q317 0 452 8q-2 -20 -10 -143l-2 -4q-47 2 -219 10q-137 6 -221 6q-51 0 -109 -2q-2 -68 -10 -463q49 2 102 2q8 0 207 -4q115 -2 207 0q-2 -18 -8 -139l-2 -4q-39 2 -211 10q-129 6 -211 6h-88l-4 -506 q190 -4 571 4q-2 -45 -10 -137l-4 -6q-92 -2 -172 -2l-582 4q4 135 14 416q-201 -2 -385 -8q-47 -131 -137 -406l-6 -8q-109 -4 -191 -10zM311 539q174 0 344 8q10 389 13 694l-105 -2z" />
<glyph unicode="&#xc7;" horiz-adv-x="1144" d="M47 643q-8 338 150 543q174 223 503 223q139 0 287 -55q4 -74 10 -217l-4 -4l-100 18l-33 104q-102 39 -164 39q-231 0 -354 -192q-111 -172 -104 -449q4 -231 102 -381q117 -174 336 -174q162 0 340 148q-8 -109 -12 -174l-5 -6q-143 -83 -317 -93q-23 -84 -59 -233 l-7 -8q-76 0 -170 -4q47 94 109 252q-252 31 -385 225q-117 172 -123 438z" />
<glyph unicode="&#xc8;" horiz-adv-x="1003" d="M100 -6q18 324 21 545l2 237q4 381 -4 578l4 2q238 0 715 6q-8 -86 -13 -137l-2 -4q-51 0 -241 8q-143 6 -242 6h-27q-10 -205 -14 -455h481q-6 -53 -10 -137l-2 -2q-66 0 -213 6q-98 4 -215 4h-43q-6 -262 -6 -522h76q457 0 456 0q-4 -45 -8 -131l-4 -4q-57 -2 -123 -2z M256 1745l199 -4l6 -4q12 -63 84 -307l-8 -6q-58 1 -111 -5q-102 205 -170 326z" />
<glyph unicode="&#xc9;" horiz-adv-x="1003" d="M100 -6q18 324 21 545l2 237q4 381 -4 578l4 2q238 0 715 6q-8 -86 -13 -137l-2 -4q-51 0 -241 8q-143 6 -242 6h-27q-10 -205 -14 -455h481q-6 -53 -10 -137l-2 -2q-66 0 -213 6q-98 4 -215 4h-43q-6 -262 -6 -522h76q457 0 456 0q-4 -45 -8 -131l-4 -4q-57 -2 -123 -2z M424 1411q61 170 103 316l6 6l39 -2q49 -2 166 8q-90 -127 -187 -319l-10 -7q-49 0 -117 -2z" />
<glyph unicode="&#xca;" horiz-adv-x="1003" d="M100 -6q18 324 21 545l2 237q4 381 -4 578l4 2q238 0 715 6q-8 -86 -13 -137l-2 -4q-51 0 -241 8q-143 6 -242 6h-27q-10 -205 -14 -455h481q-6 -53 -10 -137l-2 -2q-66 0 -213 6q-98 4 -215 4h-43q-6 -262 -6 -522h76q457 0 456 0q-4 -45 -8 -131l-4 -4q-57 -2 -123 -2z M236 1419q59 102 155 310l11 8q68 4 215 10l6 -6q43 -98 125 -291l-4 -12h-64q-31 0 -82 -4l-4 6q-31 74 -92 223q-16 -39 -63.5 -114.5t-63.5 -116.5l-8 -8q-82 -1 -131 -5z" />
<glyph unicode="&#xcb;" horiz-adv-x="1003" d="M100 -6q18 324 21 545l2 237q4 381 -4 578l4 2q238 0 715 6q-8 -86 -13 -137l-2 -4q-51 0 -241 8q-143 6 -242 6h-27q-10 -205 -14 -455h481q-6 -53 -10 -137l-2 -2q-66 0 -213 6q-98 4 -215 4h-43q-6 -262 -6 -522h76q457 0 456 0q-4 -45 -8 -131l-4 -4q-57 -2 -123 -2z M254 1471q8 61 23 217q61 4 194 12l-74 -193l-14 -14q-41 -8 -129 -22zM615 1471q10 61 22 217l197 12l-74 -193l-16 -14q-39 -8 -129 -22z" />
<glyph unicode="&#xcc;" horiz-adv-x="503" d="M35 1237l26 115l13 10l258 6q-20 -444 -21 -852q0 -262 8 -510q-82 -4 -194 -12q25 567 16 1245zM39 1755l199 -4l6 -4q12 -63 84 -307l-8 -6q-58 1 -111 -5q-102 205 -170 326z" />
<glyph unicode="&#xcd;" horiz-adv-x="503" d="M35 1237l26 115l13 10l258 6q-20 -444 -21 -852q0 -262 8 -510q-82 -4 -194 -12q25 567 16 1245zM145 1443q61 170 103 316l6 6l39 -2q49 -2 166 8q-90 -127 -187 -319l-10 -7q-49 0 -117 -2z" />
<glyph unicode="&#xce;" horiz-adv-x="503" d="M-37 1417q59 102 155 310l11 8q68 4 215 10l6 -6q43 -98 125 -291l-4 -12h-64q-31 0 -82 -4l-4 6q-31 74 -92 223q-16 -39 -63.5 -114.5t-63.5 -116.5l-8 -8q-82 -1 -131 -5zM35 1237l26 115l13 10l258 6q-20 -444 -21 -852q0 -262 8 -510q-82 -4 -194 -12 q25 567 16 1245z" />
<glyph unicode="&#xcf;" horiz-adv-x="503" d="M-37 1477q8 61 23 217q61 4 194 12l-74 -193l-14 -14q-41 -8 -129 -22zM35 1237l26 115l13 10l258 6q-20 -444 -21 -852q0 -262 8 -510q-82 -4 -194 -12q25 567 16 1245zM324 1477q10 61 22 217l197 12l-74 -193l-16 -14q-39 -8 -129 -22z" />
<glyph unicode="&#xd0;" horiz-adv-x="1374" d="M55 604q2 6 6 182l5 5q39 2 118 0l41 -3q0 215 -4 383q0 55 -12 189l10 6h49q63 0 186.5 7t184.5 7q260 0 389 -92q219 -153 223 -524q4 -182 -53 -336q-80 -219 -254 -322q-145 -86 -354 -98l-385 -12q14 295 18 614q-92 -2 -168 -6zM393 127q252 2 363 45 q178 68 254 277q55 143 51 331q-6 481 -451 482q-49 0 -198 -9q-8 -223 -13 -465q137 2 234 11l-6 -187h-232q-2 -213 -2 -485z" />
<glyph unicode="&#xd1;" horiz-adv-x="1318" d="M100 -6q18 418 19 954q0 322 -4 408l10 6q49 0 221 12l14 -10l596 -1174q2 385 -12 1166l2 2q70 2 166 10q-24 -873 -18 -1362q-76 0 -220 -12l-10 10q-94 193 -305 590q-195 371 -305 592q0 -383 16 -1180l-2 -2q-82 -2 -168 -10zM191 1555q98 170 227 170q68 0 201 -72 t184 -72q76 0 176 140l47 -117q-114 -162 -233 -162q-68 0 -192 71.5t-185 71.5q-51 0 -101 -49q-18 -23 -73 -98z" />
<glyph unicode="&#xd2;" horiz-adv-x="1376" d="M39 651q-6 322 131 527q160 233 469 233q276 0 422 -205q127 -178 135 -467q8 -324 -129 -528q-156 -236 -467 -236q-279 0 -426 205q-129 178 -135 471zM238 666q4 -225 75 -371q96 -193 297 -193q219 0 322 224q76 168 72 413q-13 547 -369 547q-410 0 -397 -620z M424 1792l199 -4l6 -4q12 -63 84 -307l-8 -6q-58 1 -111 -5q-102 205 -170 326z" />
<glyph unicode="&#xd3;" horiz-adv-x="1376" d="M39 651q-6 322 131 527q160 233 469 233q276 0 422 -205q127 -178 135 -467q8 -324 -129 -528q-156 -236 -467 -236q-279 0 -426 205q-129 178 -135 471zM238 666q4 -225 75 -371q96 -193 297 -193q219 0 322 224q76 168 72 413q-13 547 -369 547q-410 0 -397 -620z M571 1458q61 170 103 316l6 6l39 -2q49 -2 166 8q-90 -127 -187 -319l-10 -7q-49 0 -117 -2z" />
<glyph unicode="&#xd4;" horiz-adv-x="1376" d="M39 651q-6 322 131 527q160 233 469 233q276 0 422 -205q127 -178 135 -467q8 -324 -129 -528q-156 -236 -467 -236q-279 0 -426 205q-129 178 -135 471zM238 666q4 -225 75 -371q96 -193 297 -193q219 0 322 224q76 168 72 413q-13 547 -369 547q-410 0 -397 -620z M379 1460q59 102 155 310l11 8q68 4 215 10l6 -6q43 -98 125 -291l-4 -12h-64q-31 0 -82 -4l-4 6q-31 74 -92 223q-16 -39 -63.5 -114.5t-63.5 -116.5l-8 -8q-82 -1 -131 -5z" />
<glyph unicode="&#xd5;" horiz-adv-x="1376" d="M39 651q-6 322 131 527q160 233 469 233q276 0 422 -205q127 -178 135 -467q8 -324 -129 -528q-156 -236 -467 -236q-279 0 -426 205q-129 178 -135 471zM238 666q4 -225 75 -371q96 -193 297 -193q219 0 322 224q76 168 72 413q-13 547 -369 547q-410 0 -397 -620z M349 1466q6 82 8 143q10 33 58 62.5t85 29.5q45 0 136 -45t134 -45q76 0 142 103l4 -2q-4 -50 -8 -142q-82 -92 -146 -92q-47 0 -132 45t-132 45q-76 0 -147 -102h-2z" />
<glyph unicode="&#xd6;" horiz-adv-x="1376" d="M39 651q-6 322 131 527q160 233 469 233q276 0 422 -205q127 -178 135 -467q8 -324 -129 -528q-156 -236 -467 -236q-279 0 -426 205q-129 178 -135 471zM238 666q4 -225 75 -371q96 -193 297 -193q219 0 322 224q76 168 72 413q-13 547 -369 547q-410 0 -397 -620z M395 1471q8 61 23 217q61 4 194 12l-74 -193l-14 -14q-41 -8 -129 -22zM756 1471q10 61 22 217l197 12l-74 -193l-16 -14q-39 -8 -129 -22z" />
<glyph unicode="&#xd8;" horiz-adv-x="1376" d="M-23 31q49 41 162 168q-96 199 -98 403q-4 334 129 547q158 250 475 250q246 0 416 -180q94 104 151 170l9 2l57 -64v-6l-170 -174q88 -197 92 -420q6 -324 -131 -526q-158 -236 -467 -236q-248 0 -407 164q-49 -55 -144 -168h-10q-20 25 -64 70zM233 623q2 -125 33 -283 l680 752q-125 190 -303 190q-217 0 -326 -215q-88 -176 -84 -444zM305 256q127 -174 299 -174q221 0 328 221q84 174 80 453q0 86 -27 248z" />
<glyph unicode="&#xd9;" horiz-adv-x="1304" d="M117 432q6 264 8 795q-2 61 -6 125l8 8h25q76 0 172 8q-4 -135 -17 -747q-2 -119 -2 -144q6 -377 293 -377q293 0 320 369q2 33 4 166q6 483 -2 727q41 2 161 12q-8 -209 -12 -844q-2 -272 -108 -407q-120 -150 -386 -150q-174 0 -292 80q-131 90 -158 256q-6 43 -8 123z M417 1698l199 -4l6 -4q12 -63 84 -307l-8 -6q-58 1 -111 -5q-102 205 -170 326z" />
<glyph unicode="&#xda;" horiz-adv-x="1304" d="M117 432q6 264 8 795q-2 61 -6 125l8 8h25q76 0 172 8q-4 -135 -17 -747q-2 -119 -2 -144q6 -377 293 -377q293 0 320 369q2 33 4 166q6 483 -2 727q41 2 161 12q-8 -209 -12 -844q-2 -272 -108 -407q-120 -150 -386 -150q-174 0 -292 80q-131 90 -158 256q-6 43 -8 123z M522 1398q61 170 103 316l6 6l39 -2q49 -2 166 8q-90 -127 -187 -319l-10 -7q-49 0 -117 -2z" />
<glyph unicode="&#xdb;" horiz-adv-x="1304" d="M117 432q6 264 8 795q-2 61 -6 125l8 8h25q76 0 172 8q-4 -135 -17 -747q-2 -119 -2 -144q6 -377 293 -377q293 0 320 369q2 33 4 166q6 483 -2 727q41 2 161 12q-8 -209 -12 -844q-2 -272 -108 -407q-120 -150 -386 -150q-174 0 -292 80q-131 90 -158 256q-6 43 -8 123z M365 1423q59 102 155 310l11 8q68 4 215 10l6 -6q43 -98 125 -291l-4 -12h-64q-31 0 -82 -4l-4 6q-31 74 -92 223q-16 -39 -63.5 -114.5t-63.5 -116.5l-8 -8q-82 -1 -131 -5z" />
<glyph unicode="&#xdc;" horiz-adv-x="1304" d="M117 432q6 264 8 795q-2 61 -6 125l8 8h25q76 0 172 8q-4 -135 -17 -747q-2 -119 -2 -144q6 -377 293 -377q293 0 320 369q2 33 4 166q6 483 -2 727q41 2 161 12q-8 -209 -12 -844q-2 -272 -108 -407q-120 -150 -386 -150q-174 0 -292 80q-131 90 -158 256q-6 43 -8 123z M377 1471q8 61 23 217q61 4 194 12l-74 -193l-14 -14q-41 -8 -129 -22zM738 1471q10 61 22 217l197 12l-74 -193l-16 -14q-39 -8 -129 -22z" />
<glyph unicode="&#xdd;" horiz-adv-x="991" d="M-35 1360q68 0 203 6l8 -4q35 -92 281 -637q209 414 307 635l8 8q55 -2 168 2q-139 -258 -408 -786q-4 -174 -4 -318q0 -143 4 -260l-4 -2q-23 0 -192 -14q14 285 12 524q0 25 -4 49q-203 451 -379 797zM405 1321q61 170 103 316l6 6l39 -2q49 -2 166 8 q-90 -127 -187 -319l-10 -7q-49 0 -117 -2z" />
<glyph unicode="&#xde;" horiz-adv-x="1103" d="M35 1237l26 115l13 10h270q-6 -94 -14 -283l14 -2q51 -6 117 0q84 8 92 8q430 0 434 -348q2 -109 -55 -200q-131 -213 -533 -215l-45 104q150 6 232 27q225 61 221 278q-4 246 -291 246q-72 0 -186 -12q-14 -489 -2 -959l-2 -4q-100 -2 -195 -8h-6q18 403 18 751 q0 117 -6 230l6 94q0 84 -2 170z" />
<glyph unicode="&#xdf;" horiz-adv-x="1073" d="M76 -16q12 211 24 1046q2 180 29 260q37 115 152 187q94 59 225 59q143 0 234 -76t94 -217q2 -102 -56 -194q-27 -43 -108 -138q-57 -68 -58 -102q2 -53 84 -131q133 -127 152 -148q82 -98 84 -211q2 -154 -92.5 -243.5t-247.5 -89.5q-20 0 -88 10q-74 10 -80 20l2 127 l2 2q84 -45 152 -45q80 0 136 49.5t56 129.5q0 84 -84 182q-131 127 -139 135q-98 106 -98 152q0 27 57 100q74 94 104 149q57 104 56 203q-2 94 -41 154q-47 74 -135 73q-158 0 -205 -163q-20 -72 -27 -318q-16 -618 -2 -950q-102 -4 -182 -12z" />
<glyph unicode="&#xe0;" d="M37 432q-8 268 129 428q145 166 409 166q131 0 183 -27q78 -39 82 -153q0 -23 -2 -180l-4 -240l-3 -438q-45 2 -174 86q-137 -98 -247 -99q-176 0 -279 146q-88 125 -94 311zM211 442q4 -133 55 -221q63 -109 185 -108q109 0 211 100q8 496 6 598q0 37 -28 63.5t-65 28.5 q-193 10 -288 -135q-82 -125 -76 -326zM270 1456l199 -4l6 -4q12 -63 84 -307l-8 -6q-58 1 -111 -5q-102 205 -170 326z" />
<glyph unicode="&#xe1;" d="M37 432q-8 268 129 428q145 166 409 166q131 0 183 -27q78 -39 82 -153q0 -23 -2 -180l-4 -240l-3 -438q-45 2 -174 86q-137 -98 -247 -99q-176 0 -279 146q-88 125 -94 311zM211 442q4 -133 55 -221q63 -109 185 -108q109 0 211 100q8 496 6 598q0 37 -28 63.5t-65 28.5 q-193 10 -288 -135q-82 -125 -76 -326zM438 1128q61 170 103 316l6 6l39 -2q49 -2 166 8q-90 -127 -187 -319l-10 -7q-49 0 -117 -2z" />
<glyph unicode="&#xe2;" d="M37 432q-8 268 129 428q145 166 409 166q131 0 183 -27q78 -39 82 -153q0 -23 -2 -180l-4 -240l-3 -438q-45 2 -174 86q-137 -98 -247 -99q-176 0 -279 146q-88 125 -94 311zM211 442q4 -133 55 -221q63 -109 185 -108q109 0 211 100q8 496 6 598q0 37 -28 63.5t-65 28.5 q-193 10 -288 -135q-82 -125 -76 -326zM238 1130q59 102 155 310l11 8q68 4 215 10l6 -6q43 -98 125 -291l-4 -12h-64q-31 0 -82 -4l-4 6q-31 74 -92 223q-16 -39 -63.5 -114.5t-63.5 -116.5l-8 -8q-82 -1 -131 -5z" />
<glyph unicode="&#xe3;" d="M37 432q-8 268 129 428q145 166 409 166q131 0 183 -27q78 -39 82 -153q0 -23 -2 -180l-4 -240l-3 -438q-45 2 -174 86q-137 -98 -247 -99q-176 0 -279 146q-88 125 -94 311zM211 442q4 -133 55 -221q63 -109 185 -108q109 0 211 100q8 496 6 598q0 37 -28 63.5t-65 28.5 q-193 10 -288 -135q-82 -125 -76 -326zM228 1147q6 82 8 143q10 33 58 62.5t85 29.5q45 0 136 -45t134 -45q76 0 142 103l4 -2q-4 -50 -8 -142q-82 -92 -146 -92q-47 0 -132 45t-132 45q-76 0 -147 -102h-2z" />
<glyph unicode="&#xe4;" d="M37 432q-8 268 129 428q145 166 409 166q131 0 183 -27q78 -39 82 -153q0 -23 -2 -180l-4 -240l-3 -438q-45 2 -174 86q-137 -98 -247 -99q-176 0 -279 146q-88 125 -94 311zM211 442q4 -133 55 -221q63 -109 185 -108q109 0 211 100q8 496 6 598q0 37 -28 63.5t-65 28.5 q-193 10 -288 -135q-82 -125 -76 -326zM242 1217q8 61 23 217q61 4 194 12l-74 -193l-14 -14q-41 -8 -129 -22zM603 1217q10 61 22 217l197 12l-74 -193l-16 -14q-39 -8 -129 -22z" />
<glyph unicode="&#xe5;" d="M37 432q-8 268 129 428q145 166 409 166q131 0 183 -27q78 -39 82 -153q0 -23 -2 -180l-4 -240l-3 -438q-45 2 -174 86q-137 -98 -247 -99q-176 0 -279 146q-88 125 -94 311zM211 442q4 -133 55 -221q63 -109 185 -108q109 0 211 100q8 496 6 598q0 37 -28 63.5t-65 28.5 q-193 10 -288 -135q-82 -125 -76 -326zM326 1296q0 82 63 131q57 47 141 47q76 0 128.5 -46t52.5 -122q0 -82 -61.5 -127t-145.5 -45q-76 0 -127 43t-51 119zM430 1300q2 -102 90 -102q90 0 88 100q-2 111 -86 111q-43 0 -68.5 -32t-23.5 -77z" />
<glyph unicode="&#xe6;" horiz-adv-x="1566" d="M6 258q-4 215 219 295q119 43 377 53v62q-2 113 -35 166q-43 68 -147 67q-125 0 -299 -92l-8 6q6 61 8 129l6 6q201 76 342 76q158 0 258 -141q158 154 332 153q168 0 268 -118q94 -111 96 -281q2 -16 0 -39l-67 -47q-346 -51 -586 -66q12 -387 295 -387q150 0 309 127 l10 -2q-10 -82 -16 -155l-4 -9q-143 -90 -326 -90q-211 0 -350 150q-166 -164 -354 -164q-137 0 -231.5 82t-96.5 219zM188 272q2 -84 51.5 -131t133.5 -47q129 0 260 144q-25 91 -33 243q-414 -4 -412 -209zM764 608q279 25 479 49q-12 125 -49 185q-51 84 -162 84 q-186 0 -268 -318z" />
<glyph unicode="&#xe7;" horiz-adv-x="829" d="M27 465q-6 231 127 395q139 176 366 176q125 0 213 -37q-6 -78 -10 -137l-6 -2q-78 53 -174 53q-162 0 -260 -145q-84 -127 -80 -297q4 -152 69 -250q76 -119 220 -119q121 0 239 107q-8 -96 -10 -154q-67 -61 -219 -75q-23 -88 -62 -244l-6 -8q-74 0 -170 -7 q49 98 113 263q-170 29 -264 172q-80 125 -86 309z" />
<glyph unicode="&#xe8;" horiz-adv-x="970" d="M43 455q-6 240 94 403q119 195 346 195q143 0 248 -90q94 -84 137 -228q-16 -33 -63 -88q-195 -57 -586 -170q23 -377 309 -377q152 0 295 129q-6 -72 -12 -163q-35 -41 -145 -68q-92 -23 -162 -23q-215 0 -338 134q-117 127 -123 346zM209 610l483 129 q-104 205 -219 205q-190 0 -264 -334zM270 1456l199 -4l6 -4q12 -63 84 -307l-8 -6q-58 1 -111 -5q-102 205 -170 326z" />
<glyph unicode="&#xe9;" horiz-adv-x="970" d="M43 455q-6 240 94 403q119 195 346 195q143 0 248 -90q94 -84 137 -228q-16 -33 -63 -88q-195 -57 -586 -170q23 -377 309 -377q152 0 295 129q-6 -72 -12 -163q-35 -41 -145 -68q-92 -23 -162 -23q-215 0 -338 134q-117 127 -123 346zM209 610l483 129 q-104 205 -219 205q-190 0 -264 -334zM438 1128q61 170 103 316l6 6l39 -2q49 -2 166 8q-90 -127 -187 -319l-10 -7q-49 0 -117 -2z" />
<glyph unicode="&#xea;" horiz-adv-x="970" d="M43 455q-6 240 94 403q119 195 346 195q143 0 248 -90q94 -84 137 -228q-16 -33 -63 -88q-195 -57 -586 -170q23 -377 309 -377q152 0 295 129q-6 -72 -12 -163q-35 -41 -145 -68q-92 -23 -162 -23q-215 0 -338 134q-117 127 -123 346zM207 1130q59 102 155 310l11 8 q68 4 215 10l6 -6q43 -98 125 -291l-4 -12h-64q-31 0 -82 -4l-4 6q-31 74 -92 223q-16 -39 -63.5 -114.5t-63.5 -116.5l-8 -8q-82 -1 -131 -5zM209 610l483 129q-104 205 -219 205q-190 0 -264 -334z" />
<glyph unicode="&#xeb;" horiz-adv-x="970" d="M43 455q-6 240 94 403q119 195 346 195q143 0 248 -90q94 -84 137 -228q-16 -33 -63 -88q-195 -57 -586 -170q23 -377 309 -377q152 0 295 129q-6 -72 -12 -163q-35 -41 -145 -68q-92 -23 -162 -23q-215 0 -338 134q-117 127 -123 346zM209 610l483 129 q-104 205 -219 205q-190 0 -264 -334zM237 1217q8 61 23 217q61 4 194 12l-74 -193l-14 -14q-41 -8 -129 -22zM598 1217q10 61 22 217l197 12l-74 -193l-16 -14q-39 -8 -129 -22z" />
<glyph unicode="&#xec;" horiz-adv-x="456" d="M16 1456l199 -4l6 -4q12 -63 84 -307l-8 -6q-58 1 -111 -5q-102 205 -170 326zM113 -8q27 354 20 778q-2 104 -12 213q86 16 194 45l4 -4q-20 -360 -20 -678q0 -178 6 -342q-108 -4 -192 -12z" />
<glyph unicode="&#xed;" horiz-adv-x="456" d="M113 -8q27 354 20 778q-2 104 -12 213q86 16 194 45l4 -4q-20 -360 -20 -678q0 -178 6 -342q-108 -4 -192 -12zM137 1128q61 170 103 316l6 6l39 -2q49 -2 166 8q-90 -127 -187 -319l-10 -7q-49 0 -117 -2z" />
<glyph unicode="&#xee;" horiz-adv-x="456" d="M-29 1130q59 102 155 310l11 8q68 4 215 10l6 -6q43 -98 125 -291l-4 -12h-64q-31 0 -82 -4l-4 6q-31 74 -92 223q-16 -39 -63.5 -114.5t-63.5 -116.5l-8 -8q-82 -1 -131 -5zM113 -8q27 354 20 778q-2 104 -12 213q86 16 194 45l4 -4q-20 -360 -20 -678q0 -178 6 -342 q-108 -4 -192 -12z" />
<glyph unicode="&#xef;" horiz-adv-x="456" d="M-14 1217q8 61 23 217q61 4 194 12l-74 -193l-14 -14q-41 -8 -129 -22zM113 -8q27 354 20 778q-2 104 -12 213q86 16 194 45l4 -4q-20 -360 -20 -678q0 -178 6 -342q-108 -4 -192 -12zM347 1217q10 61 22 217l197 12l-74 -193l-16 -14q-39 -8 -129 -22z" />
<glyph unicode="&#xf0;" horiz-adv-x="1120" d="M31 444q-6 270 144.5 426t420.5 156q47 0 102 -4v137q-117 -2 -206 -4q2 4 6 141l4 2q41 2 119 0l77 -2q-2 68 -8 148q74 16 189 47q-4 -96 -9 -193q111 3 193 7l-6 -144h-191q-10 -332 -10 -680q0 -260 14 -467l-4 -6q-41 2 -98 29l-94 43q-143 -98 -258 -98 q-182 0 -289 145q-92 127 -96 317zM207 453q2 -131 59 -224q70 -111 193 -110q119 0 227 100q6 309 6 686q-70 4 -96 4q-199 0 -301 -131q-92 -121 -88 -325z" />
<glyph unicode="&#xf1;" horiz-adv-x="1071" d="M98 989q12 8 19 8q39 0 82 -18l84 -39q139 98 346 98q254 0 258 -303q2 -80 -2 -268q-2 -104 0 -270q2 -115 6 -185l-2 -2q-98 -4 -178 -10l-2 2q0 31 8 324q4 133 2 323q0 102 -35 170q-45 88 -137 88q-129 0 -262 -114q-4 -207 -4 -385q0 -221 6 -398l-2 -2 q-100 -4 -185 -12q14 408 11 622q-4 188 -13 371zM211 1147q6 82 8 143q10 33 58 62.5t85 29.5q45 0 136 -45t134 -45q76 0 142 103l4 -2q-4 -50 -8 -142q-82 -92 -146 -92q-47 0 -132 45t-132 45q-76 0 -147 -102h-2z" />
<glyph unicode="&#xf2;" horiz-adv-x="1019" d="M35 459q-8 254 98 403q121 172 365 172q205 0 313 -141q94 -127 100 -340q8 -254 -90 -403q-117 -176 -358 -177q-211 0 -322 142q-100 127 -106 344zM213 442q4 -143 55 -237q68 -123 197 -123q285 0 270 442q-12 400 -254 400q-283 0 -268 -482zM270 1456l199 -4l6 -4 q12 -63 84 -307l-8 -6q-58 1 -111 -5q-102 205 -170 326z" />
<glyph unicode="&#xf3;" horiz-adv-x="1019" d="M35 459q-8 254 98 403q121 172 365 172q205 0 313 -141q94 -127 100 -340q8 -254 -90 -403q-117 -176 -358 -177q-211 0 -322 142q-100 127 -106 344zM213 442q4 -143 55 -237q68 -123 197 -123q285 0 270 442q-12 400 -254 400q-283 0 -268 -482zM438 1128 q61 170 103 316l6 6l39 -2q49 -2 166 8q-90 -127 -187 -319l-10 -7q-49 0 -117 -2z" />
<glyph unicode="&#xf4;" horiz-adv-x="1019" d="M35 459q-8 254 98 403q121 172 365 172q205 0 313 -141q94 -127 100 -340q8 -254 -90 -403q-117 -176 -358 -177q-211 0 -322 142q-100 127 -106 344zM207 1130q59 102 155 310l11 8q68 4 215 10l6 -6q43 -98 125 -291l-4 -12h-64q-31 0 -82 -4l-4 6q-31 74 -92 223 q-16 -39 -63.5 -114.5t-63.5 -116.5l-8 -8q-82 -1 -131 -5zM213 442q4 -143 55 -237q68 -123 197 -123q285 0 270 442q-12 400 -254 400q-283 0 -268 -482z" />
<glyph unicode="&#xf5;" horiz-adv-x="1019" d="M35 459q-8 254 98 403q121 172 365 172q205 0 313 -141q94 -127 100 -340q8 -254 -90 -403q-117 -176 -358 -177q-211 0 -322 142q-100 127 -106 344zM213 442q4 -143 55 -237q68 -123 197 -123q285 0 270 442q-12 400 -254 400q-283 0 -268 -482zM222 1147q6 82 8 143 q10 33 58 62.5t85 29.5q45 0 136 -45t134 -45q76 0 142 103l4 -2q-4 -50 -8 -142q-82 -92 -146 -92q-47 0 -132 45t-132 45q-76 0 -147 -102h-2z" />
<glyph unicode="&#xf6;" horiz-adv-x="1019" d="M35 459q-8 254 98 403q121 172 365 172q205 0 313 -141q94 -127 100 -340q8 -254 -90 -403q-117 -176 -358 -177q-211 0 -322 142q-100 127 -106 344zM213 442q4 -143 55 -237q68 -123 197 -123q285 0 270 442q-12 400 -254 400q-283 0 -268 -482zM242 1217q8 61 23 217 q61 4 194 12l-74 -193l-14 -14q-41 -8 -129 -22zM603 1217q10 61 22 217l197 12l-74 -193l-16 -14q-39 -8 -129 -22z" />
<glyph unicode="&#xf7;" horiz-adv-x="1224" d="M-27 489l2 117l1192 2l-4 -116zM473 246q0 41 26.5 68.5t67.5 27.5q84 0 86 -90q0 -39 -27.5 -67.5t-66.5 -28.5q-84 0 -86 90zM489 844q0 41 27 68.5t70 27.5q84 0 86 -90q0 -41 -28 -68.5t-69 -27.5q-84 0 -86 90z" />
<glyph unicode="&#xf8;" horiz-adv-x="1069" d="M-37 41l150 143q-51 147 -54 301q-4 240 109 387q125 162 356 162q172 0 310 -127q70 68 122 127h9q29 -35 51 -63l-2 -10q-47 -39 -137 -123q55 -137 57 -297q4 -254 -96 -400q-117 -170 -361 -170q-188 0 -321 146q-76 -78 -127 -137h-15zM233 430q0 -57 5 -123 l485 490q-94 137 -205 137q-293 0 -285 -504zM264 225q78 -156 223 -155q283 0 277 456q0 52 -12 187z" />
<glyph unicode="&#xf9;" horiz-adv-x="1064" d="M96 1014l2 2q82 6 195 20l2 -4q0 -70 -10 -196q-12 -137 -15 -197q-4 -176 -2 -279q2 -102 37 -170q47 -88 137 -88q109 0 254 127q0 31 6 187q4 102 5 186q0 197 -9 412l2 2q14 0 187 18q-12 -365 -13 -641q1 -227 9 -395l-6 -8q-41 4 -89 37l-92 61 q-168 -115 -338 -115q-254 0 -258 301q-2 78 2 267q2 143 0 264q-2 125 -6 209zM290 1456l199 -4l6 -4q12 -63 84 -307l-8 -6q-58 1 -111 -5q-102 205 -170 326z" />
<glyph unicode="&#xfa;" horiz-adv-x="1064" d="M96 1014l2 2q82 6 195 20l2 -4q0 -70 -10 -196q-12 -137 -15 -197q-4 -176 -2 -279q2 -102 37 -170q47 -88 137 -88q109 0 254 127q0 31 6 187q4 102 5 186q0 197 -9 412l2 2q14 0 187 18q-12 -365 -13 -641q1 -227 9 -395l-6 -8q-41 4 -89 37l-92 61 q-168 -115 -338 -115q-254 0 -258 301q-2 78 2 267q2 143 0 264q-2 125 -6 209zM438 1128q61 170 103 316l6 6l39 -2q49 -2 166 8q-90 -127 -187 -319l-10 -7q-49 0 -117 -2z" />
<glyph unicode="&#xfb;" horiz-adv-x="1064" d="M96 1014l2 2q82 6 195 20l2 -4q0 -70 -10 -196q-12 -137 -15 -197q-4 -176 -2 -279q2 -102 37 -170q47 -88 137 -88q109 0 254 127q0 31 6 187q4 102 5 186q0 197 -9 412l2 2q14 0 187 18q-12 -365 -13 -641q1 -227 9 -395l-6 -8q-41 4 -89 37l-92 61 q-168 -115 -338 -115q-254 0 -258 301q-2 78 2 267q2 143 0 264q-2 125 -6 209zM238 1130q59 102 155 310l11 8q68 4 215 10l6 -6q43 -98 125 -291l-4 -12h-64q-31 0 -82 -4l-4 6q-31 74 -92 223q-16 -39 -63.5 -114.5t-63.5 -116.5l-8 -8q-82 -1 -131 -5z" />
<glyph unicode="&#xfc;" horiz-adv-x="1064" d="M96 1014l2 2q82 6 195 20l2 -4q0 -70 -10 -196q-12 -137 -15 -197q-4 -176 -2 -279q2 -102 37 -170q47 -88 137 -88q109 0 254 127q0 31 6 187q4 102 5 186q0 197 -9 412l2 2q14 0 187 18q-12 -365 -13 -641q1 -227 9 -395l-6 -8q-41 4 -89 37l-92 61 q-168 -115 -338 -115q-254 0 -258 301q-2 78 2 267q2 143 0 264q-2 125 -6 209zM252 1217q8 61 23 217q61 4 194 12l-74 -193l-14 -14q-41 -8 -129 -22zM613 1217q10 61 22 217l197 12l-74 -193l-16 -14q-39 -8 -129 -22z" />
<glyph unicode="&#xfd;" horiz-adv-x="845" d="M-2 1016q123 12 192 22l7 -4q66 -260 223 -809q82 262 235 797l9 6q75 2 161 6q-127 -334 -331 -940q-43 -129 -154 -469l-10 -10q-106 -4 -180 -10q72 129 120 227q4 8 62 150q-25 86 -152 479q-80 248 -182 555zM401 1124q61 170 103 316l6 6l39 -2q49 -2 166 8 q-90 -127 -187 -319l-10 -7q-49 0 -117 -2z" />
<glyph unicode="&#xfe;" horiz-adv-x="1042" d="M86 -416q33 692 27 1024q0 123 -9 348l2 5q-6 160 -18 481q86 18 186 43q-4 -86 -8 -527l4 -4q143 98 299 99q168 0 269 -144q90 -127 92 -303q4 -287 -191 -444q-182 -147 -471 -137q-2 -229 2 -410l-4 -4zM268 133q41 -2 66 -2q201 0 313 131q106 125 103 330 q-2 131 -56 223q-63 111 -186 111q-104 0 -229 -95q-10 -264 -11 -698z" />
<glyph unicode="&#xff;" horiz-adv-x="833" d="M-8 985q123 12 192 23l6 -7q51 -207 224 -796q82 264 235 796l6 7q78 2 164 6q-143 -383 -332 -940q-68 -199 -153 -486l-10 -10l-181 -10q68 111 183 393q-35 115 -133 422q-49 150 -201 602zM104 1214q4 90 2 177l7 8q76 0 182 6l4 -4q-4 -80 -2 -178l-4 -4 q-80 0 -187 -9zM516 1227q2 106 2 176l6 4h47q47 0 136 6l4 -4q-2 -92 -2 -174l-4 -6q-98 -2 -187 -6z" />
<glyph unicode="&#x152;" horiz-adv-x="1755" d="M23 641v39q0 541 442 666q117 33 442 32h193q51 0 165.5 -2t164.5 -2q53 0 165 4l-12 -141l-6 -6l-541 8q-8 -227 -12 -459h68q150 0 444 6q-2 -47 -8 -139l-4 -6q-14 0 -221 4q-104 2 -220 2h-63q-6 -242 -6 -512q61 2 119 2q49 0 145 -3t145 -3q74 0 156 6l4 -4 q-8 -63 -10 -135l-4 -6h-43q-61 0 -181 4t-182 4q-86 0 -257 -5t-257 -5q-627 0 -626 651zM219 641q6 -311 174 -440q98 -76 297 -76q55 0 141 6q23 645 19 1110q-70 2 -105 2q-205 0 -315 -69q-119 -78 -174 -263q-39 -133 -37 -270z" />
<glyph unicode="&#x153;" horiz-adv-x="1679" d="M27 449q-4 246 98 397q119 176 352 176q111 0 193 -47q70 -41 145 -137q164 199 348 198q195 0 305 -174q61 -96 64 -176q0 -4 -4 -49l-66 -68l-583 -90q2 -57 18 -170q57 -209 277 -209q152 0 307 125l6 -4q-12 -98 -17 -158l-6 -6q-143 -84 -309 -84q-213 0 -352 177 q-160 -190 -367 -191q-207 0 -313 145q-92 127 -96 345zM209 453q6 -375 250 -375q264 0 258 457q-7 368 -234 368q-281 0 -274 -450zM874 598l492 76q-47 250 -215 250q-205 0 -277 -326z" />
<glyph unicode="&#x178;" horiz-adv-x="993" d="M-47 1354q10 2 201 18l10 -6q92 -215 282 -645q193 391 304 641l10 10q72 0 168 8q-139 -264 -408 -798q-6 -137 -6 -297q0 -135 4 -285l-2 -2q-111 0 -194 -6q12 211 12 551v18q-221 481 -381 793zM131 1524l4 174l4 4q96 0 191 6q0 -31 -2 -178l-2 -6l-191 -2z M555 1534q4 106 2 170l6 6h88q18 0 53 2t54 2l2 -2q-2 -67 -4 -176l-4 -4q-80 2 -193 0z" />
<glyph unicode="&#x2c6;" horiz-adv-x="948" d="M207 1130q59 102 155 310l11 8q68 4 215 10l6 -6q43 -98 125 -291l-4 -12h-64q-31 0 -82 -4l-4 6q-31 74 -92 223q-16 -39 -63.5 -114.5t-63.5 -116.5l-8 -8q-82 -1 -131 -5z" />
<glyph unicode="&#x2dc;" horiz-adv-x="626" d="M-18 1147q6 82 8 143q10 33 58 62.5t85 29.5q45 0 136 -45t134 -45q76 0 142 103l4 -2q-4 -50 -8 -142q-82 -92 -146 -92q-47 0 -132 45t-132 45q-76 0 -147 -102h-2z" />
<glyph unicode="&#x2000;" horiz-adv-x="896" />
<glyph unicode="&#x2001;" horiz-adv-x="1792" />
<glyph unicode="&#x2002;" horiz-adv-x="896" />
<glyph unicode="&#x2003;" horiz-adv-x="1792" />
<glyph unicode="&#x2004;" horiz-adv-x="597" />
<glyph unicode="&#x2005;" horiz-adv-x="448" />
<glyph unicode="&#x2006;" horiz-adv-x="298" />
<glyph unicode="&#x2007;" horiz-adv-x="298" />
<glyph unicode="&#x2008;" horiz-adv-x="224" />
<glyph unicode="&#x2009;" horiz-adv-x="358" />
<glyph unicode="&#x200a;" horiz-adv-x="99" />
<glyph unicode="&#x2010;" horiz-adv-x="821" d="M119 453q2 6 6 182l4 4q41 2 119 0q80 -2 119 -2q200 0 329 10l-6 -186h-137q-264 0 -434 -8z" />
<glyph unicode="&#x2011;" horiz-adv-x="821" d="M119 453q2 6 6 182l4 4q41 2 119 0q80 -2 119 -2q200 0 329 10l-6 -186h-137q-264 0 -434 -8z" />
<glyph unicode="&#x2012;" horiz-adv-x="821" d="M119 453q2 6 6 182l4 4q41 2 119 0q80 -2 119 -2q200 0 329 10l-6 -186h-137q-264 0 -434 -8z" />
<glyph unicode="&#x2013;" horiz-adv-x="1148" d="M86 455q4 59 8 178l4 4l506 -6q193 -2 402 12q-2 -25 -9 -180q-82 -2 -231 0l-229 2q-207 0 -451 -10z" />
<glyph unicode="&#x2014;" horiz-adv-x="1337" d="M18 446q4 45 11 134q109 4 592 0q355 -2 591 16q-4 -29 -12 -133l-4 -4q-150 -6 -590 0q-365 4 -588 -13z" />
<glyph unicode="&#x2018;" horiz-adv-x="380" d="M2 969q74 190 172 514l6 8q74 4 123 10q-82 -336 -104 -510l-4 -6q-84 -4 -193 -16z" />
<glyph unicode="&#x2019;" horiz-adv-x="370" d="M-2 969q80 334 104 508l4 6q117 8 193 16q-76 -193 -170 -510l-8 -10z" />
<glyph unicode="&#x201a;" horiz-adv-x="415" d="M61 -301q76 309 105 512l6 6q75 2 188 12q-82 -233 -167 -514l-9 -10z" />
<glyph unicode="&#x201c;" horiz-adv-x="655" d="M-14 961q109 299 170 516l6 8q72 4 123 8q-68 -274 -105 -508l-6 -6q-111 -8 -188 -18zM266 971q96 250 172 510l6 8l121 10q-74 -307 -104 -508l-2 -4q-121 -8 -193 -16z" />
<glyph unicode="&#x201d;" horiz-adv-x="688" d="M16 961q39 168 105 507l2 5q116 8 192 16q-90 -229 -170 -510l-8 -8zM297 967q66 272 104 508l7 6q108 8 188 18q-121 -334 -170 -518l-6 -6q-70 -4 -123 -8z" />
<glyph unicode="&#x201e;" horiz-adv-x="696" d="M66 -309q39 168 104 508l2 6q117 6 193 16q-90 -229 -170 -510l-9 -8q-37 -4 -120 -12zM346 -303q68 281 105 510l6 6q82 4 188 18q-106 -299 -170 -516l-6 -6z" />
<glyph unicode="&#x2022;" horiz-adv-x="610" d="M106 690q0 90 54.5 156.5t142.5 66.5t142.5 -70.5t54.5 -160.5q0 -88 -54.5 -155.5t-142.5 -67.5t-143 73q-54 68 -54 158z" />
<glyph unicode="&#x2026;" horiz-adv-x="1830" d="M176 53q0 45 27.5 75t70.5 30q80 0 82 -92q0 -43 -27.5 -74t-70.5 -31q-80 0 -82 92zM782 72q0 43 27 75.5t68 32.5q82 0 84 -84q1 -112 -93 -112q-84 0 -86 88zM1386 98q0 39 30 72t67 33q84 0 86 -94q0 -39 -26.5 -71t-65.5 -32q-88 0 -91 92z" />
<glyph unicode="&#x202f;" horiz-adv-x="358" />
<glyph unicode="&#x2039;" horiz-adv-x="497" d="M49 535q57 111 172 374l8 6q46 1 136 3q-74 -135 -183 -373l185 -389l-134 -4l-6 6q-57 135 -176 372z" />
<glyph unicode="&#x203a;" horiz-adv-x="493" d="M98 911q78 2 133 4l7 -6q49 -119 176 -372v-2q-94 -203 -170 -375l-8 -8h-136q82 147 183 372q-9 14 -185 387z" />
<glyph unicode="&#x205f;" horiz-adv-x="448" />
<glyph unicode="&#x20ac;" horiz-adv-x="1239" d="M35 768l26 137h93q55 240 220 372t412 132q139 0 287 -55l-39 -158l-90 59q-100 39 -164 39q-172 0 -286 -112q-106 -102 -150 -277h645l-31 -139h-636q-4 -41 -5 -113v-16l613 -2l-25 -137h-571q33 -180 131 -285q113 -115 287 -115q100 0 182 39q61 29 160 109 q-10 -109 -15 -174l-4 -6q-160 -92 -356 -93q-244 0 -393.5 139.5t-186.5 385.5h-100l27 139h61v6q0 82 4 123z" />
<glyph unicode="&#x2122;" horiz-adv-x="1265" d="M-47 1272l2 80l471 8l-2 -76l-168 -6l-8 -545l-109 -2l8 545zM485 719l13 624l145 3l141 -494l154 500l145 2l-10 -625l-104 -2l12 496l-154 -498l-100 -2l-133 485l-4 -487z" />
<glyph unicode="&#xe000;" horiz-adv-x="1034" d="M0 0v1034h1034v-1034h-1034z" />
</font>
</defs>
</svg>
